<?xml version="1.0" encoding="UTF-8" standalone="no"?>
<!DOCTYPE svg PUBLIC "-//W3C//DTD SVG 1.1//EN" "http://www.w3.org/Graphics/SVG/1.1/DTD/svg11.dtd">
<svg width="100%" height="100%" viewBox="0 0 386 304" version="1.1" xmlns="http://www.w3.org/2000/svg" xmlns:xlink="http://www.w3.org/1999/xlink" xml:space="preserve" xmlns:serif="http://www.serif.com/" style="fill-rule:evenodd;clip-rule:evenodd;stroke-linejoin:round;stroke-miterlimit:1.41421;">
    <g>
        <path d="M231.163,198.336L221.707,198.336L221.707,236.891C221.707,244.812 215.265,251.254 207.344,251.254C199.424,251.254 192.981,244.812 192.981,236.891L192.981,198.336L192.343,198.336L192.343,236.891C192.343,244.812 185.901,251.254 177.98,251.254C170.061,251.254 163.619,244.812 163.619,236.891L163.619,198.336L154.164,198.336L44.164,295.336L341.164,295.336L231.163,198.336Z" style="fill-rule:nonzero;"/>
        <path d="M117.744,156.422C118.325,157.276 119.176,157.917 120.166,158.267L120.166,198.621C115.137,198.881 111.286,200.306 111.286,202.03C111.286,203.939 115.996,205.487 121.807,205.487C127.617,205.487 132.327,203.939 132.327,202.03C132.327,200.3 128.453,198.872 123.403,198.619L123.403,158.267C125.301,157.596 126.67,155.805 126.67,153.676C126.67,150.979 124.483,148.791 121.784,148.791C119.087,148.791 116.899,150.979 116.899,153.676C116.899,154.367 117.046,155.023 117.305,155.618C108.409,159.822 98.474,157.068 90.972,151.808C90.501,153.414 89.652,154.856 88.528,156.038C97.583,160.735 109.225,162.09 117.744,156.422ZM127.4,202.029C127.4,203.126 124.896,204.014 121.806,204.014C118.715,204.014 116.21,203.125 116.21,202.029C116.21,201.135 117.875,200.381 120.165,200.133L120.165,202.265L123.401,202.265L123.401,200.129C125.714,200.373 127.4,201.131 127.4,202.029Z" style="fill-rule:nonzero;"/>
        <path d="M38.051,152.913C48.352,158.712 62.417,160.883 72.651,155.002C72.209,154.398 71.826,153.747 71.522,153.053C61.255,156.466 50.346,152.108 42.481,145.576C42.454,145.553 42.425,145.534 42.398,145.512C41.693,148.397 40.157,150.952 38.051,152.913Z" style="fill-rule:nonzero;"/>
        <path d="M55.853,270.335C55.853,265.74 45.576,261.936 32.163,261.266L32.163,156.307C30.801,156.715 29.36,156.942 27.867,156.942C26.374,156.942 24.934,156.715 23.573,156.307L23.573,261.271C10.218,261.959 0,265.754 0,270.335C0,275.402 12.504,279.51 27.926,279.51C43.35,279.51 55.853,275.402 55.853,270.335ZM13.072,270.335C13.072,267.963 17.494,265.958 23.572,265.299L23.572,270.961L32.162,270.961L32.162,265.288C38.3,265.934 42.779,267.948 42.779,270.335C42.779,273.244 36.129,275.603 27.926,275.603C19.723,275.602 13.072,273.244 13.072,270.335Z" style="fill-rule:nonzero;"/>
        <circle cx="27.867" cy="141.975" r="12.969"/>
        <path d="M78.248,158.885L78.248,225.94C69.627,226.384 63.025,228.829 63.025,231.786C63.025,235.058 71.099,237.712 81.058,237.712C91.018,237.712 99.092,235.059 99.092,231.786C99.092,228.821 92.451,226.371 83.793,225.936L83.793,158.885C82.908,159.131 81.98,159.273 81.019,159.273C80.059,159.272 79.132,159.131 78.248,158.885ZM90.65,231.785C90.65,233.664 86.355,235.187 81.058,235.187C75.761,235.187 71.466,233.664 71.466,231.785C71.466,230.253 74.322,228.959 78.247,228.533L78.247,232.189L83.793,232.189L83.793,228.526C87.757,228.943 90.65,230.244 90.65,231.785Z" style="fill-rule:nonzero;"/>
        <circle cx="81.021" cy="148.896" r="8.375"/>
        <path d="M385.326,270.335C385.326,265.754 375.108,261.959 361.754,261.272L361.754,156.307C360.393,156.715 358.953,156.942 357.46,156.942C355.967,156.942 354.526,156.715 353.164,156.307L353.164,261.265C339.751,261.935 329.475,265.741 329.475,270.334C329.475,275.401 341.977,279.509 357.401,279.509C372.822,279.51 385.326,275.402 385.326,270.335ZM357.4,275.602C349.196,275.602 342.547,273.244 342.547,270.334C342.547,267.947 347.026,265.934 353.164,265.287L353.164,270.96L361.754,270.96L361.754,265.298C367.832,265.957 372.254,267.962 372.254,270.334C372.254,273.244 365.603,275.602 357.4,275.602Z" style="fill-rule:nonzero;"/>
        <path d="M301.533,158.885L301.533,225.936C292.875,226.37 286.234,228.821 286.234,231.786C286.234,235.058 294.308,237.712 304.267,237.712C314.226,237.712 322.3,235.059 322.3,231.786C322.3,228.829 315.698,226.385 307.077,225.94L307.077,158.885C306.193,159.131 305.267,159.273 304.306,159.273C303.345,159.272 302.417,159.131 301.533,158.885ZM313.859,231.785C313.859,233.664 309.564,235.187 304.267,235.187C298.97,235.187 294.675,233.664 294.675,231.785C294.675,230.243 297.569,228.943 301.532,228.526L301.532,232.189L307.077,232.189L307.077,228.533C311.003,228.959 313.859,230.253 313.859,231.785Z" style="fill-rule:nonzero;"/>
        <path d="M349.016,151.806C351.286,153.756 354.231,154.943 357.459,154.943C364.621,154.943 370.428,149.137 370.428,141.974C370.428,134.812 364.621,129.005 357.459,129.005C350.297,129.005 344.49,134.812 344.49,141.974C344.49,142.788 344.574,143.581 344.718,144.353C344.113,144.664 343.512,145.051 342.93,145.512C342.903,145.535 342.874,145.553 342.847,145.576C334.981,152.107 324.072,156.465 313.804,153.053C313.177,152.845 312.553,152.61 311.931,152.342C312.407,151.29 312.679,150.126 312.679,148.897C312.679,144.272 308.929,140.522 304.306,140.522C299.679,140.522 295.931,144.272 295.931,148.897C295.931,149.456 295.988,150 296.093,150.529C296.036,150.571 295.979,150.606 295.922,150.649C295.413,151.047 294.888,151.434 294.353,151.809C286.851,157.068 276.916,159.823 268.021,155.619C268.28,155.023 268.427,154.368 268.427,153.677C268.427,150.98 266.239,148.792 263.542,148.792C260.843,148.792 258.657,150.98 258.657,153.677C258.657,155.806 260.024,157.597 261.923,158.268L261.923,198.62C256.873,198.873 252.999,200.302 252.999,202.031C252.999,203.94 257.71,205.488 263.519,205.488C269.33,205.488 274.04,203.94 274.04,202.031C274.04,200.306 270.188,198.882 265.159,198.622L265.159,158.268C266.149,157.918 267.001,157.277 267.581,156.422C276.1,162.091 287.741,160.737 296.796,156.039C297.415,155.718 298.022,155.382 298.614,155.03C300.108,156.418 302.104,157.272 304.304,157.272C307.035,157.272 309.454,155.957 310.983,153.932C311.533,154.315 312.097,154.671 312.673,155.002C322.907,160.882 336.971,158.711 347.273,152.913C347.358,152.865 347.445,152.819 347.529,152.771C348.073,152.482 348.566,152.156 349.016,151.806ZM269.115,202.029C269.115,203.126 266.611,204.014 263.519,204.014C260.429,204.014 257.925,203.125 257.925,202.029C257.925,201.131 259.612,200.373 261.923,200.13L261.923,202.266L265.159,202.266L265.159,200.134C267.45,200.382 269.115,201.136 269.115,202.029Z" style="fill-rule:nonzero;"/>
        <path d="M165.617,141.89L165.617,236.89C165.617,243.718 171.152,249.253 177.98,249.253C184.808,249.253 190.343,243.718 190.343,236.89L190.343,149.617L194.98,149.617L194.98,236.89C194.98,243.718 200.515,249.253 207.343,249.253C214.171,249.253 219.707,243.718 219.707,236.89L219.707,141.89L219.707,110.67L219.707,103.396L219.707,87.733C220.3,88.95 220.898,90.345 221.488,91.973C224.307,99.785 226.678,112.605 226.668,132.614C226.668,138.13 226.492,144.187 226.104,150.838C225.846,155.247 229.215,159.034 233.625,159.29C233.784,159.299 233.942,159.304 234.1,159.304C238.306,159.304 241.831,156.023 242.079,151.77C242.482,144.836 242.668,138.47 242.668,132.615C242.628,102.432 237.808,85.727 231.235,75.682C227.95,70.696 224.107,67.499 220.557,65.726C217.85,64.361 215.399,63.833 213.599,63.661C213.077,63.55 212.535,63.488 211.979,63.488L205.347,63.488C204.138,71.275 199.476,98.597 192.661,105.412C185.847,98.598 181.185,71.275 179.975,63.488L173.341,63.488C173.021,63.488 172.708,63.513 172.399,63.551C169.867,63.238 164.286,62.167 159.24,58.838C155.874,56.642 152.675,53.587 150.171,48.902C147.682,44.209 145.835,37.745 145.826,28.482C145.826,23.14 146.454,16.888 147.954,9.62C148.848,5.292 146.063,1.062 141.737,0.167C137.411,-0.727 133.179,2.058 132.285,6.386C130.596,14.564 129.825,21.89 129.825,28.483C129.817,40.255 132.327,49.747 136.422,57.113C142.57,68.226 152.003,73.997 159.504,76.756C161.719,77.575 163.781,78.157 165.614,78.579L165.614,141.89L165.617,141.89Z" style="fill-rule:nonzero;"/>
        <circle cx="192.663" cy="34.89" r="22.5"/>
        <path d="M191.663,68.39L191.663,67.39L184.663,63.39L184.663,72.39L191.663,68.39Z" style="fill-rule:nonzero;"/>
        <path d="M193.663,67.39L193.663,68.39L200.663,72.39L200.663,63.39L193.663,67.39Z" style="fill-rule:nonzero;"/>
        <circle cx="192.663" cy="75.89" r="2"/>
        <circle cx="192.663" cy="82.89" r="2"/>
        <circle cx="192.663" cy="90.89" r="2"/>
    </g>
</svg>
