<?xml version="1.0" encoding="UTF-8" standalone="no"?>
<!DOCTYPE svg PUBLIC "-//W3C//DTD SVG 1.1//EN" "http://www.w3.org/Graphics/SVG/1.1/DTD/svg11.dtd">
<svg width="100%" height="100%" viewBox="0 0 16694 20617" version="1.1" xmlns="http://www.w3.org/2000/svg" xmlns:xlink="http://www.w3.org/1999/xlink" xml:space="preserve" xmlns:serif="http://www.serif.com/" style="fill-rule:evenodd;clip-rule:evenodd;stroke-linejoin:round;stroke-miterlimit:1.41421;">
    <path d="M2824,0L15158,0C16003,0 16694,691 16694,1536L16694,18470C16694,19315 16003,20006 15158,20006L2824,20006C1979,20006 1288,19315 1288,18470L1288,17239L2046,17239C2205,17379 2412,17464 2640,17464C3135,17464 3536,17062 3536,16567C3536,16072 3135,15671 2640,15671C2412,15671 2205,15756 2047,15896L1288,15896L1288,13957L2046,13957C2205,14097 2412,14182 2640,14182C3135,14182 3536,13780 3536,13285C3536,12790 3135,12389 2640,12389C2412,12389 2205,12474 2047,12613L1288,12613L1288,10675L2046,10675C2205,10815 2412,10899 2640,10899C3135,10899 3536,10498 3536,10003C3536,9508 3135,9107 2640,9107C2412,9107 2205,9191 2047,9331L1288,9331L1288,7393L2046,7393C2205,7532 2412,7617 2640,7617C3135,7617 3536,7216 3536,6721C3536,6226 3135,5824 2640,5824C2412,5824 2205,5909 2047,6049L1288,6049L1288,4110L2046,4110C2205,4250 2412,4335 2640,4335C3135,4335 3536,3934 3536,3439C3536,2944 3135,2542 2640,2542C2412,2542 2205,2627 2047,2767L1288,2767L1288,1536C1288,691 1979,0 2824,0ZM4542,1158L4542,18848L15158,18848C15366,18848 15536,18678 15536,18470L15536,1536C15536,1328 15366,1158 15158,1158L4542,1158ZM379,3060L2650,3060C2858,3060 3028,3230 3028,3439C3028,3647 2858,3817 2650,3817L379,3817C170,3817 0,3647 0,3439C0,3230 170,3060 379,3060ZM379,6342L2650,6342C2858,6342 3028,6512 3028,6721C3028,6929 2858,7099 2650,7099L379,7099C170,7099 0,6929 0,6721C0,6512 170,6342 379,6342ZM379,9624L2650,9624C2858,9624 3028,9795 3028,10003C3028,10211 2858,10382 2650,10382L379,10382C170,10382 0,10211 0,10003C0,9795 170,9624 379,9624ZM379,12907L2650,12907C2858,12907 3028,13077 3028,13285C3028,13493 2858,13664 2650,13664L379,13664C170,13664 0,13493 0,13285C0,13077 170,12907 379,12907ZM379,16189L2650,16189C2858,16189 3028,16359 3028,16567C3028,16776 2858,16946 2650,16946L379,16946C170,16946 0,16776 0,16567C0,16359 170,16189 379,16189ZM10789,10894L10789,11372C10789,11459 10752,11534 10683,11587L9912,12178L9141,11587C9072,11534 9036,11459 9036,11372L9036,10883L8975,10819C8863,10702 8803,10567 8793,10406L8775,10131L8771,10130C8716,10114 8671,10095 8636,10067C8602,10039 8579,10002 8553,9929C8527,9856 8498,9747 8477,9649C8456,9551 8443,9464 8437,9389C8432,9314 8433,9250 8451,9200C8469,9150 8516,9110 8549,9099C8582,9089 8600,9095 8615,9092C8629,9088 8607,9079 8607,9072L8606,9062C8603,9058 8600,9054 8596,9050C8472,8887 8379,8568 8353,8282C8327,7997 8369,7745 8411,7493C8488,7542 8566,7590 8708,7514C8850,7439 9056,7239 9291,7100C9527,6961 9791,6884 10064,6897C10336,6910 10617,7013 10777,7149C10936,7286 10975,7455 11014,7624C11138,7621 11262,7618 11352,7763C11441,7908 11496,8202 11475,8459C11454,8716 11357,8937 11260,9052C11251,9063 11242,9072 11234,9081L11232,9089C11257,9090 11280,9096 11303,9104C11350,9122 11393,9154 11414,9213C11434,9273 11431,9360 11424,9446C11416,9533 11403,9619 11383,9706C11362,9794 11333,9881 11307,9944C11281,10006 11258,10043 11223,10071C11189,10099 11143,10118 11089,10134C11078,10137 11068,10140 11057,10143L11040,10408C11029,10568 10971,10702 10860,10819L10789,10894ZM9978,5532C11213,5532 12330,6033 13140,6842C13949,7651 14449,8769 14449,10003C14449,11237 13949,12355 13140,13164C12330,13973 11213,14474 9978,14474C8744,14474 7626,13973 6817,13164C6008,12355 5508,11237 5508,10003C5508,8769 6008,7651 6817,6842C7626,6033 8744,5532 9978,5532ZM12718,7263C12017,6562 11048,6128 9978,6128C8908,6128 7940,6562 7238,7263C6537,7964 6104,8933 6104,10003C6104,10903 6411,11732 6926,12389C6946,12374 6966,12359 6987,12345C7262,12156 7956,12024 8222,11888C8487,11753 8644,11614 8801,11475C8865,11792 8929,12109 8968,12382C9007,12654 9022,12882 9036,13111C9100,12975 9164,12840 9235,12738C9307,12637 9385,12569 9463,12501C9563,12658 9663,12815 9690,12909C9718,13004 9674,13036 9620,13387C9601,13509 9582,13669 9561,13855C9698,13870 9837,13878 9978,13878C10119,13878 10258,13870 10395,13855C10375,13669 10355,13509 10337,13387C10283,13036 10239,13004 10266,12909C10294,12815 10394,12658 10493,12501C10572,12569 10650,12637 10721,12738C10793,12840 10857,12975 10921,13111C10935,12882 10949,12654 10988,12382C11028,12109 11092,11792 11156,11475C11313,11614 11469,11753 11735,11888C12000,12024 12695,12156 12969,12345C12991,12359 13011,12374 13031,12389C13546,11732 13853,10903 13853,10003C13853,8933 13419,7964 12718,7263Z"/>
    <g transform="matrix(1,0,0,1,0,20021)">
        <text x="0px" y="0px" style="font-family:'Arial-BoldMT', 'Arial', sans-serif;font-weight:700;font-size:5px;">Created by popcornarts</text>
    </g>
    <g transform="matrix(1,0,0,1,0,20026)">
        <text x="0px" y="0px" style="font-family:'Arial-BoldMT', 'Arial', sans-serif;font-weight:700;font-size:5px;">from the Noun Project</text>
    </g>
</svg>
