<?xml version="1.0" encoding="UTF-8" standalone="no"?>
<!DOCTYPE svg PUBLIC "-//W3C//DTD SVG 1.1//EN" "http://www.w3.org/Graphics/SVG/1.1/DTD/svg11.dtd">
<svg width="100%" height="100%" viewBox="0 0 100 101" version="1.1" xmlns="http://www.w3.org/2000/svg" xmlns:xlink="http://www.w3.org/1999/xlink" xml:space="preserve" xmlns:serif="http://www.serif.com/" style="fill-rule:evenodd;clip-rule:evenodd;stroke-linejoin:round;stroke-miterlimit:1.41421;">
    <path d="M94,98.5L70.6,98.5L69.2,98.5L47.1,98.5C45.4,98.5 44,97.1 44,95.4C44.1,86.4 44.4,81.3 50.8,79C57.3,76.5 61.2,74 61.2,74L66.2,89.8L66.9,91.9L69.1,85.6C64,78.4 69.6,78 70.5,78C71.5,78 77,78.3 71.9,85.5L74.1,91.8L74.8,89.7L79.8,73.9C79.8,73.9 83.7,76.4 90.2,78.9C96.6,81.2 96.9,86.3 97,95.3C97.1,97.1 95.7,98.5 94,98.5ZM3,18.2L3,42.1C3,44.2 3.3,46.5 3.8,49C5,54.3 7.8,59.2 12.4,63.9C18.1,69.6 25.2,74.1 34.3,77.5C34.9,77.7 35.5,77.8 36.2,77.8C37.1,77.8 38,77.6 38.6,77.3L40.9,76.3C42.8,75.5 44.7,74.6 46.7,73.7C49.2,72.4 51.4,71 53.5,69.6C53.3,69.1 53.1,68.5 52.9,68C51.3,65.9 50.5,63.4 50.1,62.1C48,63.7 45.7,65.2 43,66.6C41.2,67.5 39.5,68.2 37.7,69C37.2,69.2 36.7,69.4 36.2,69.7L36.2,40.4L11,40.4C11,35.6 11,30.9 11,26.2L11,20.2C19.4,19.3 27.5,16.1 36.3,10.2L36.3,40.4L53.1,40.4C53.9,39.2 54.7,38.1 55.8,37C57.1,35.7 58.5,34.5 60,33.5C61.5,32.5 63,31.7 64.6,31.2C66.1,30.7 67.6,30.4 69.1,30.3C69.3,30.3 69.4,30.3 69.6,30.3L69.6,18.1C69.6,15 67.7,13 64.6,12.5L63.3,12.3C61.5,12.1 59.8,11.9 58.2,11.5C52.3,10.2 46.5,7.5 40.2,3C39.2,2.3 38.1,1.5 36.5,1.5C34.9,1.5 33.8,2.3 32.8,3C24.3,8.9 16.6,11.9 8.7,12.3C6.4,12.4 3,13.3 3,18.2ZM57,59.9C57.9,63 58.7,63.9 59.3,64C59.9,67.7 62.7,72.4 67.5,74.1C69.4,74.8 71.6,74.8 73.5,74.1C78.1,72.4 81.1,67.7 81.7,64C82.3,64 83.1,63.1 84,59.9C85.2,55.6 83.9,55 82.8,55.1C83,54.5 83.2,53.9 83.3,53.3C85.1,42.2 79.7,41.8 79.7,41.8C79.7,41.8 78.8,40.1 76.4,38.7C74.8,37.8 72.6,37 69.7,37.3C68.8,37.3 67.9,37.5 67,37.8C65.9,38.2 64.9,38.7 64,39.3C62.9,40 61.9,40.8 61,41.8C59.6,43.3 58.3,45.2 57.7,47.6C57.2,49.4 57.3,51.2 57.7,53.2C57.8,53.8 58,54.4 58.2,55C57.1,55 55.8,55.6 57,59.9Z" style="fill-rule:nonzero;"/>
</svg>
