<?xml version="1.0" encoding="UTF-8" standalone="no"?>
<!DOCTYPE svg PUBLIC "-//W3C//DTD SVG 1.1//EN" "http://www.w3.org/Graphics/SVG/1.1/DTD/svg11.dtd">
<svg width="100%" height="100%" viewBox="0 0 32 32" version="1.1" xmlns="http://www.w3.org/2000/svg" xmlns:xlink="http://www.w3.org/1999/xlink" xml:space="preserve" xmlns:serif="http://www.serif.com/" style="fill-rule:evenodd;clip-rule:evenodd;stroke-linejoin:round;stroke-miterlimit:1.41421;">
    <path d="M25,2L11,2C9.354,2 8,3.354 8,5L8,6L7,6C5.354,6 4,7.354 4,9L4,16C4,16.549 4.451,17 5,17C5.549,17 6,16.549 6,16L6,9C6,8.451 6.451,8 7,8L21,8C21.549,8 22,8.451 22,9L22,27C22,27.549 21.549,28 21,28L7,28C6.451,28 6,27.549 6,27L6,24.9C6,24.351 5.549,23.9 5,23.9C4.451,23.9 4,24.351 4,24.9L4,27C4,28.646 5.354,30 7,30L21,30C22.265,29.996 23.398,29.193 23.82,28L25,28C26.646,28 28,26.646 28,25L28,5C28,3.354 26.646,2 25,2ZM26,25C26,25.549 25.549,26 25,26L24,26L24,9C24,7.354 22.646,6 21,6L10,6L10,5C10,4.451 10.451,4 11,4L25,4C25.549,4 26,4.451 26,5L26,25ZM8,11C8,10.451 8.451,10 9,10L19,10C19.549,10 20,10.451 20,11C20,11.549 19.549,12 19,12L9,12C8.451,12 8,11.549 8,11ZM8,15C8,14.451 8.451,14 9,14L17,14C17.549,14 18,14.451 18,15C18,15.549 17.549,16 17,16L9,16C8.451,16 8,15.549 8,15ZM8,19C8,18.451 8.451,18 9,18L15,18C15.549,18 16,18.451 16,19C16,19.549 15.549,20 15,20L9,20C8.451,20 8,19.549 8,19ZM4,19C4,18.451 4.451,18 5,18C5.549,18 6,18.451 6,19C6,19.549 5.549,20 5,20C4.451,20 4,19.549 4,19ZM4,22C4,21.451 4.451,21 5,21C5.549,21 6,21.451 6,22C6,22.549 5.549,23 5,23C4.451,23 4,22.549 4,22Z" style="fill-rule:nonzero;"/>
</svg>
