<?xml version="1.0" encoding="UTF-8" standalone="no"?>
<!DOCTYPE svg PUBLIC "-//W3C//DTD SVG 1.1//EN" "http://www.w3.org/Graphics/SVG/1.1/DTD/svg11.dtd">
<svg width="100%" height="100%" viewBox="0 0 96 99" version="1.1" xmlns="http://www.w3.org/2000/svg" xmlns:xlink="http://www.w3.org/1999/xlink" xml:space="preserve" xmlns:serif="http://www.serif.com/" style="fill-rule:evenodd;clip-rule:evenodd;stroke-linejoin:round;stroke-miterlimit:1.41421;">
    <path d="M92.12,20.65L92.12,25.94C92.12,27.877 90.527,29.47 88.59,29.47L7.41,29.47C5.473,29.47 3.88,27.877 3.88,25.94L3.88,20.65C3.88,17.748 6.268,15.36 9.17,15.36L21.53,15.36L21.53,20.65C21.531,22.586 23.124,24.177 25.06,24.177C25.177,24.177 25.294,24.172 25.41,24.16C27.24,23.932 28.619,22.344 28.59,20.5L28.59,15.35L67.41,15.35L67.41,20.64C67.411,22.576 69.004,24.167 70.94,24.167C71.057,24.167 71.174,24.162 71.29,24.15C73.12,23.922 74.499,22.334 74.47,20.49L74.47,15.35L86.82,15.35C86.823,15.35 86.827,15.35 86.83,15.35C89.732,15.35 92.12,17.738 92.12,20.64C92.12,20.643 92.12,20.647 92.12,20.65ZM28.59,6.53C28.59,6.524 28.59,6.518 28.59,6.513C28.59,4.576 26.997,2.983 25.06,2.983C24.943,2.983 24.826,2.988 24.71,3C22.88,3.228 21.501,4.816 21.53,6.66L21.53,15.33L28.59,15.33L28.59,6.53ZM74.47,6.53C74.47,6.524 74.47,6.518 74.47,6.513C74.47,4.576 72.877,2.983 70.94,2.983C70.823,2.983 70.706,2.988 70.59,3C68.76,3.228 67.381,4.816 67.41,6.66L67.41,15.33L74.47,15.33L74.47,6.53ZM92.12,36.53L92.12,87.71C92.12,90.612 89.732,93 86.83,93C86.827,93 86.823,93 86.82,93L9.18,93C6.278,93 3.89,90.612 3.89,87.71L3.89,36.53C3.89,34.597 5.477,33.005 7.41,33L88.59,33C90.527,33 92.12,34.593 92.12,36.53ZM32.12,69.18C32.12,67.243 30.527,65.65 28.59,65.65L21.53,65.65C19.593,65.65 18,67.243 18,69.18L18,76.24C18,78.177 19.593,79.77 21.53,79.77L28.59,79.77C30.527,79.77 32.12,78.177 32.12,76.24L32.12,69.18ZM32.12,46.24C32.12,44.303 30.527,42.71 28.59,42.71L21.53,42.71C19.593,42.71 18,44.303 18,46.24L18,53.3C18,55.237 19.593,56.83 21.53,56.83L28.59,56.83C30.527,56.83 32.12,55.237 32.12,53.3L32.12,46.24ZM55.06,69.18C55.06,67.243 53.467,65.65 51.53,65.65L44.47,65.65C42.533,65.65 40.94,67.243 40.94,69.18L40.94,76.24C40.94,78.177 42.533,79.77 44.47,79.77L51.53,79.77C53.467,79.77 55.06,78.177 55.06,76.24L55.06,69.18ZM55.06,46.24C55.06,44.303 53.467,42.71 51.53,42.71L44.47,42.71C42.533,42.71 40.94,44.303 40.94,46.24L40.94,53.3C40.94,55.237 42.533,56.83 44.47,56.83L51.53,56.83C53.467,56.83 55.06,55.237 55.06,53.3L55.06,46.24ZM78,69.18C78,67.243 76.407,65.65 74.47,65.65L67.41,65.65C65.473,65.65 63.88,67.243 63.88,69.18L63.88,76.24C63.88,78.177 65.473,79.77 67.41,79.77L74.47,79.77C76.407,79.77 78,78.177 78,76.24L78,69.18ZM78,46.24C78,44.303 76.407,42.71 74.47,42.71L67.41,42.71C65.473,42.71 63.88,44.303 63.88,46.24L63.88,53.3C63.88,55.237 65.473,56.83 67.41,56.83L74.47,56.83C76.407,56.83 78,55.237 78,53.3C78,53.297 78,53.293 78,53.29L78,46.24Z" style="fill-rule:nonzero;"/>
</svg>
