<?xml version="1.0" encoding="UTF-8" standalone="no"?><!DOCTYPE svg PUBLIC "-//W3C//DTD SVG 1.1//EN" "http://www.w3.org/Graphics/SVG/1.1/DTD/svg11.dtd"><svg width="100%" height="100%" viewBox="0 0 32 33" version="1.1" xmlns="http://www.w3.org/2000/svg" xmlns:xlink="http://www.w3.org/1999/xlink" xml:space="preserve" xmlns:serif="http://www.serif.com/" style="fill-rule:evenodd;clip-rule:evenodd;stroke-linejoin:round;stroke-miterlimit:1.41421;"><g><path d="M15.503,2.5c2.063,0 5.855,0.806 6.421,0.924c-0.122,0.586 -0.763,3.614 -0.922,5.535c-0.023,0.282 -0.035,0.625 -0.039,0.978c-0.845,-0.098 -3.983,-0.453 -5.962,-0.439c-1.672,0.011 -4.275,0.341 -5.025,0.437c0.012,-0.325 0.038,-0.677 0.027,-0.953c-0.073,-1.963 -0.792,-4.964 -0.929,-5.558c0.558,-0.116 4.363,-0.924 6.429,-0.924l0,0Z" style="fill-rule:nonzero;"/><path d="M15.001,10.496c1.886,-0.015 5.259,0.369 5.968,0.451c0.011,0.56 0.03,0.985 0.031,1.021c-0.577,0.116 -1.159,0.247 -1.74,0.387c-2.303,0.556 -4.587,1.262 -6.364,1.729c-0.889,0.233 -1.657,0.402 -2.211,0.469c-0.277,0.034 -0.5,0.044 -0.643,0.029c-0.142,-0.015 -0.178,-0.058 -0.148,-0.029c-0.022,-0.025 -0.047,-0.047 -0.074,-0.067l-0.287,-0.189c0.047,-0.303 0.266,-1.739 0.396,-3.342c0.549,-0.072 3.469,-0.447 5.072,-0.459l0,0Z" style="fill-rule:nonzero;"/><path d="M24.355,12.512c0.491,-0.026 0.956,-0.026 1.389,0c0.865,0.063 1.586,0.256 2.12,0.579c0.535,0.324 0.902,0.762 1.096,1.444c0.096,0.338 0.018,0.577 -0.23,0.871c-0.249,0.294 -0.691,0.592 -1.235,0.836c-0.775,0.348 -1.647,0.433 -2.468,0.541c0,0 0.007,0 0.008,-0.01c0.058,-0.392 -0.142,-0.788 -0.414,-1.018c-0.545,-0.459 -1.325,-0.594 -2.203,-0.695c-1.757,-0.202 -3.9,-0.075 -4.422,-0.045c-2.489,0.144 -6.118,1.481 -9.247,2.125c-1.564,0.322 -2.992,0.457 -3.991,0.248c-1,-0.209 -1.555,-0.635 -1.744,-1.729c-0.053,-0.303 0.045,-0.552 0.318,-0.834c0.273,-0.282 0.726,-0.546 1.256,-0.718c1.059,-0.346 2.395,-0.303 3.171,0.213l1.494,0.988l-0.074,-0.059c0.216,0.216 0.48,0.285 0.746,0.314c0.266,0.03 0.555,0.011 0.879,-0.03c0.647,-0.078 1.436,-0.26 2.343,-0.498c1.814,-0.476 4.081,-1.174 6.343,-1.72c1.697,-0.41 3.393,-0.73 4.865,-0.811l0,0.008Z" style="fill-rule:nonzero;"/><path d="M19.847,28.367c1.181,1.296 2.78,1.126 2.78,1.126c2.261,0.039 2.787,-1.325 2.787,-1.325c0.405,-1.102 -0.597,-1.426 -0.597,-1.426c-0.751,-0.243 -1.059,0.324 -1.059,0.324c0.616,-0.161 0.584,0.33 0.584,0.33c0.013,0.415 -0.488,0.453 -0.488,0.453c-1.04,0.109 -1.182,-0.907 -1.182,-0.907c-0.051,-0.302 -0.147,-1.187 -0.147,-1.187c-0.135,-0.956 -0.636,-1.831 -0.636,-1.831c-2.062,-3.612 -5.818,-2.122 -5.818,-2.122l-0.071,0l-0.071,0c0,0 -3.756,-1.49 -5.818,2.122c0,0 -0.501,0.875 -0.636,1.831c0,0 -0.096,0.885 -0.147,1.187c0,0 -0.142,1.015 -1.182,0.907c0,0 -0.501,-0.034 -0.488,-0.453c0,0 -0.032,-0.492 0.584,-0.33c0,0 -0.308,-0.566 -1.059,-0.324c0,0 -1.002,0.324 -0.597,1.426c0,0 0.558,1.368 2.819,1.325c0,0 1.567,0.17 2.748,-1.126c4.675,-5.431 3.779,-4.752 7.694,0l0,0Z" style="fill-rule:nonzero;"/></g></svg>