<?xml version="1.0" encoding="UTF-8" standalone="no"?>
<!DOCTYPE svg PUBLIC "-//W3C//DTD SVG 1.1//EN" "http://www.w3.org/Graphics/SVG/1.1/DTD/svg11.dtd">
<svg width="100%" height="100%" viewBox="0 0 32 31" version="1.1" xmlns="http://www.w3.org/2000/svg" xmlns:xlink="http://www.w3.org/1999/xlink" xml:space="preserve" xmlns:serif="http://www.serif.com/" style="fill-rule:evenodd;clip-rule:evenodd;stroke-linejoin:round;stroke-miterlimit:1.41421;">
    <g transform="matrix(1,0,0,1,4,4)">
        <rect x="0" y="0" width="24" height="24" style="fill:none;"/>
        <path d="M9.221,9.27L9.221,5.484C9.221,4.932 8.774,4.484 8.221,4.484L5.435,4.484C4.883,4.484 4.435,4.932 4.435,5.484L4.435,8.27C4.435,8.822 4.883,9.27 5.435,9.27L9.221,9.27ZM5.435,2.484L8.221,2.484C9.878,2.484 11.221,3.827 11.221,5.484L11.221,10.27C11.221,10.822 10.774,11.27 10.221,11.27L5.435,11.27C3.778,11.27 2.435,9.927 2.435,8.27L2.435,5.484C2.435,3.827 3.778,2.484 5.435,2.484ZM14.839,4.27L14.839,9.27L19.839,9.27C20.392,9.27 20.839,8.822 20.839,8.27L20.839,4.27C20.839,3.718 20.392,3.27 19.839,3.27L15.839,3.27C15.287,3.27 14.839,3.718 14.839,4.27ZM19.839,1.27C21.496,1.27 22.839,2.613 22.839,4.27L22.839,8.27C22.839,9.927 21.496,11.27 19.839,11.27L13.839,11.27C13.287,11.27 12.839,10.822 12.839,10.27L12.839,4.27C12.839,2.613 14.182,1.27 15.839,1.27L19.839,1.27ZM14.839,14.726L14.839,18.518C14.839,19.07 15.287,19.518 15.839,19.518L18.631,19.518C19.183,19.518 19.631,19.07 19.631,18.518L19.631,15.726C19.631,15.174 19.183,14.726 18.631,14.726L14.839,14.726ZM18.631,21.518L15.839,21.518C14.182,21.518 12.839,20.175 12.839,18.518L12.839,13.726C12.839,13.174 13.287,12.726 13.839,12.726L18.631,12.726C20.288,12.726 21.631,14.069 21.631,15.726L21.631,18.518C21.631,20.175 20.288,21.518 18.631,21.518ZM9.239,14.726L4.239,14.726C3.687,14.726 3.239,15.174 3.239,15.726L3.239,19.726C3.239,20.278 3.687,20.726 4.239,20.726L8.239,20.726C8.791,20.726 9.239,20.278 9.239,19.726L9.239,14.726ZM4.239,22.726C2.582,22.726 1.239,21.383 1.239,19.726L1.239,15.726C1.239,14.069 2.582,12.726 4.239,12.726L10.239,12.726C10.791,12.726 11.239,13.174 11.239,13.726L11.239,19.726C11.239,21.383 9.896,22.726 8.239,22.726L4.239,22.726Z" style="fill-rule:nonzero;"/>
    </g>
</svg>
