<?xml version="1.0" encoding="UTF-8" standalone="no"?>
<!DOCTYPE svg PUBLIC "-//W3C//DTD SVG 1.1//EN" "http://www.w3.org/Graphics/SVG/1.1/DTD/svg11.dtd">
<svg width="100%" height="100%" viewBox="0 0 22830 23575" version="1.1" xmlns="http://www.w3.org/2000/svg" xmlns:xlink="http://www.w3.org/1999/xlink" xml:space="preserve" xmlns:serif="http://www.serif.com/" style="fill-rule:evenodd;clip-rule:evenodd;stroke-linejoin:round;stroke-miterlimit:1.41421;">
    <path d="M11415,3171C11980,3171 12531,3233 13061,3351C12972,3737 12926,4139 12926,4551C12926,4637 12928,4723 12932,4807C12447,4683 11939,4617 11415,4617C9731,4617 8206,5300 7103,6403C5999,7507 5317,9032 5317,10715C5317,12079 5765,13339 6521,14355C6628,14235 6747,14132 6883,14039C7298,13753 8351,13553 8753,13348C9155,13143 9393,12932 9630,12722C9728,13202 9825,13682 9884,14095C9943,14508 9965,14854 9987,15199C10084,14994 10181,14789 10289,14635C10397,14481 10516,14379 10634,14276C10786,14514 10937,14751 10979,14895C11020,15037 10953,15086 10872,15618C10830,15895 10784,16304 10736,16776C10959,16801 11185,16814 11415,16814C11644,16814 11871,16801 12093,16776C12046,16304 12000,15895 11958,15618C11877,15086 11809,15037 11851,14895C11893,14751 12044,14514 12195,14276C12314,14379 12433,14481 12541,14635C12649,14789 12746,14994 12843,15199C12864,14854 12886,14508 12945,14095C13005,13682 13102,13202 13199,12722C13437,12932 13674,13143 14076,13348C14478,13553 15531,13753 15947,14039C16082,14132 16202,14235 16308,14355C17065,13339 17513,12079 17513,10715C17513,10418 17492,10126 17451,9840C17720,9882 17997,9904 18278,9904C18493,9904 18704,9891 18912,9867C18943,10145 18959,10428 18959,10715C18959,12799 18115,14685 16749,16050C15384,17415 13498,18260 11415,18260C9332,18260 7445,17415 6080,16050C4715,14685 3871,12799 3871,10715C3871,8632 4715,6746 6080,5381C7445,4016 9332,3171 11415,3171ZM12643,11841L12643,12565C12643,12697 12587,12810 12483,12890L11315,13787L10147,12890C10042,12810 9986,12697 9986,12565L9986,11824L9894,11728C9725,11551 9634,11345 9619,11101L9591,10685L9585,10684C9503,10659 9434,10630 9381,10588C9330,10545 9295,10489 9255,10379C9216,10268 9172,10102 9140,9954C9108,9806 9089,9675 9080,9561C9071,9446 9073,9349 9101,9274C9127,9198 9200,9137 9250,9122C9300,9106 9326,9116 9349,9110C9371,9104 9338,9091 9337,9080L9336,9065C9331,9059 9326,9053 9321,9047C9133,8800 8991,8316 8952,7883C8913,7451 8977,7070 9040,6688C9157,6762 9275,6835 9490,6720C9705,6606 10017,6302 10374,6092C10731,5882 11132,5765 11545,5785C11957,5804 12383,5960 12625,6167C12867,6373 12925,6630 12984,6887C13172,6882 13360,6877 13496,7097C13632,7317 13715,7762 13683,8151C13651,8541 13504,8876 13357,9050C13343,9066 13330,9080 13317,9093L13315,9106C13352,9108 13388,9116 13422,9129C13493,9156 13559,9204 13590,9294C13620,9384 13617,9516 13605,9647C13593,9779 13574,9910 13542,10042C13511,10174 13467,10306 13427,10401C13388,10495 13353,10551 13301,10593C13249,10636 13180,10664 13097,10690C13082,10694 13066,10699 13049,10703L13023,11104C13008,11347 12918,11550 12751,11727L12643,11841ZM2894,17042C3693,17042 4416,17366 4940,17890C5463,18414 5787,19137 5787,19936C5787,20735 5463,21459 4940,21982C4416,22506 3693,22830 2894,22830C2095,22830 1371,22506 848,21982C324,21459 0,20735 0,19936C0,19137 324,18414 848,17890C1371,17366 2095,17042 2894,17042ZM3578,20706C3541,20890 3504,21074 3481,21232C3458,21391 3450,21523 3441,21656C3404,21577 3367,21499 3325,21440C3284,21381 3238,21341 3193,21302C3135,21393 3077,21484 3061,21539C3045,21594 3071,21612 3102,21816C3118,21923 3136,22080 3154,22261C3069,22270 2982,22275 2894,22275C2806,22275 2719,22270 2633,22261C2652,22080 2669,21923 2685,21816C2716,21612 2742,21594 2726,21539C2710,21484 2652,21393 2594,21302C2549,21341 2503,21381 2462,21440C2420,21499 2383,21577 2346,21656C2338,21523 2329,21391 2307,21232C2284,21074 2246,20890 2209,20706C2118,20786 2027,20867 1873,20946C1719,21024 1315,21101 1155,21211C1103,21247 1057,21286 1017,21332C726,20942 555,20459 555,19936C555,19290 817,18705 1240,18282C1663,17859 2248,17597 2894,17597C3539,17597 4124,17859 4547,18282C4971,18705 5233,19290 5233,19936C5233,20459 5061,20942 4770,21332C4730,21286 4684,21247 4632,21211C4472,21101 4069,21024 3914,20946C3760,20867 3669,20786 3578,20706ZM3365,20368L3365,20646C3365,20696 3343,20740 3303,20770L2855,21114L2407,20770C2367,20740 2346,20696 2346,20646L2346,20361L2310,20324C2245,20256 2211,20178 2205,20084L2194,19925L2192,19924C2160,19914 2134,19903 2114,19887C2094,19871 2081,19849 2065,19807C2050,19765 2033,19701 2021,19644C2009,19587 2001,19537 1998,19493C1995,19449 1996,19412 2006,19383C2016,19354 2044,19331 2063,19325C2082,19319 2093,19323 2101,19320C2110,19318 2097,19313 2096,19309L2096,19303C2094,19301 2092,19298 2091,19296C2018,19201 1964,19016 1949,18850C1934,18684 1958,18538 1983,18392C2028,18420 2073,18448 2155,18404C2238,18360 2358,18243 2494,18163C2631,18082 2785,18037 2943,18045C3102,18052 3265,18112 3358,18191C3450,18271 3473,18369 3495,18468C3568,18466 3640,18464 3692,18548C3744,18633 3776,18803 3764,18953C3751,19102 3695,19231 3638,19297C3633,19303 3628,19309 3623,19314L3622,19319C3637,19320 3650,19323 3663,19328C3691,19338 3716,19356 3728,19391C3740,19425 3738,19476 3734,19526C3729,19577 3722,19627 3710,19678C3697,19728 3681,19779 3665,19815C3650,19852 3637,19873 3617,19889C3597,19905 3571,19917 3539,19926C3533,19928 3527,19930 3521,19931L3511,20085C3505,20178 3470,20256 3406,20324L3365,20368ZM19936,17042C20735,17042 21459,17366 21982,17890C22506,18414 22830,19137 22830,19936C22830,20735 22506,21459 21982,21982C21459,22506 20735,22830 19936,22830C19137,22830 18414,22506 17890,21982C17366,21459 17042,20735 17042,19936C17042,19137 17366,18414 17890,17890C18414,17366 19137,17042 19936,17042ZM20620,20706C20583,20890 20546,21074 20523,21232C20500,21391 20492,21523 20484,21656C20447,21577 20409,21499 20368,21440C20326,21381 20281,21341 20235,21302C20177,21393 20119,21484 20103,21539C20087,21594 20113,21612 20144,21816C20161,21923 20178,22080 20196,22261C20111,22270 20024,22275 19936,22275C19848,22275 19761,22270 19676,22261C19694,22080 19712,21923 19728,21816C19759,21612 19785,21594 19769,21539C19753,21484 19695,21393 19637,21302C19591,21341 19546,21381 19504,21440C19463,21499 19426,21577 19388,21656C19380,21523 19372,21391 19349,21232C19326,21074 19289,20890 19252,20706C19161,20786 19070,20867 18915,20946C18761,21024 18357,21101 18198,21211C18146,21247 18100,21286 18059,21332C17769,20942 17597,20459 17597,19936C17597,19290 17859,18705 18282,18282C18705,17859 19290,17597 19936,17597C20582,17597 21167,17859 21590,18282C22013,18705 22275,19290 22275,19936C22275,20459 22103,20942 21813,21332C21772,21286 21726,21247 21674,21211C21515,21101 21111,21024 20957,20946C20803,20867 20712,20786 20620,20706ZM20407,20368L20407,20646C20407,20696 20386,20740 20346,20770L19898,21114L19450,20770C19410,20740 19388,20696 19388,20646L19388,20361L19353,20324C19288,20256 19253,20178 19247,20084L19237,19925L19234,19924C19203,19914 19176,19903 19156,19887C19136,19871 19123,19849 19108,19807C19093,19765 19076,19701 19063,19644C19051,19587 19044,19537 19041,19493C19037,19449 19038,19412 19048,19383C19059,19354 19086,19331 19106,19325C19125,19319 19135,19323 19144,19320C19152,19318 19139,19313 19139,19309L19139,19303C19137,19301 19135,19298 19133,19296C19061,19201 19007,19016 18992,18850C18976,18684 19001,18538 19025,18392C19070,18420 19115,18448 19198,18404C19280,18360 19400,18243 19537,18163C19674,18082 19827,18037 19986,18045C20144,18052 20307,18112 20400,18191C20493,18271 20515,18369 20538,18468C20610,18466 20682,18464 20734,18548C20786,18633 20818,18803 20806,18953C20794,19102 20737,19231 20681,19297C20676,19303 20671,19309 20666,19314L20665,19319C20679,19320 20693,19323 20706,19328C20733,19338 20758,19356 20770,19391C20782,19425 20781,19476 20776,19526C20772,19577 20764,19627 20752,19678C20740,19728 20723,19779 20708,19815C20693,19852 20680,19873 20660,19889C20640,19905 20613,19917 20581,19926C20575,19928 20569,19930 20563,19931L20553,20085C20547,20178 20513,20256 20449,20324L20407,20368ZM18278,0C20792,0 22830,2038 22830,4551C22830,7065 20792,9103 18278,9103C15765,9103 13727,7065 13727,4551C13727,2038 15765,0 18278,0ZM16014,4425L17342,5332L19812,1778L20746,2428L17955,6444L17633,6907L17167,6589L15373,5364L16014,4425Z"/>
    <g transform="matrix(1,0,0,1,0,22845)">
        <text x="0px" y="0px" style="font-family:'Arial-BoldMT', 'Arial', sans-serif;font-weight:700;font-size:5px;">Created by popcornarts</text>
    </g>
    <g transform="matrix(1,0,0,1,0,22850)">
        <text x="0px" y="0px" style="font-family:'Arial-BoldMT', 'Arial', sans-serif;font-weight:700;font-size:5px;">from the Noun Project</text>
    </g>
</svg>
