<?xml version="1.0" encoding="UTF-8" standalone="no"?>
<!DOCTYPE svg PUBLIC "-//W3C//DTD SVG 1.1//EN" "http://www.w3.org/Graphics/SVG/1.1/DTD/svg11.dtd">
<svg width="100%" height="100%" viewBox="0 0 100 97" version="1.1" xmlns="http://www.w3.org/2000/svg" xmlns:xlink="http://www.w3.org/1999/xlink" xml:space="preserve" xmlns:serif="http://www.serif.com/" style="fill-rule:evenodd;clip-rule:evenodd;stroke-linejoin:round;stroke-miterlimit:1.41421;">
    <path d="M25,13C17.304,13 11,19.304 11,27C11,34.696 17.304,41 25,41C32.696,41 39,34.696 39,27C39,19.304 32.696,13 25,13ZM57,13C49.304,13 43,19.304 43,27C43,34.696 49.304,41 57,41C64.696,41 71,34.696 71,27C71,19.304 64.696,13 57,13ZM25,19C29.454,19 33,22.546 33,27C33,31.454 29.454,35 25,35C20.546,35 17,31.454 17,27C17,22.546 20.546,19 25,19ZM57,19C61.454,19 65,22.546 65,27C65,31.454 61.454,35 57,35C52.546,35 49,31.454 49,27C49,22.546 52.546,19 57,19ZM25,43C12.798,43 3,53.253 3,65.75L3,68C3,69.646 4.354,71 6,71L53.844,71C56.466,80.219 64.962,87 75,87C87.115,87 97,77.115 97,65C97,52.885 87.115,43 75,43C71.789,43 68.724,43.691 65.969,44.938C63.233,43.687 60.181,43 57,43C50.651,43 45.032,45.858 41.031,50.281C37.024,45.831 31.368,43 25,43ZM25,49C33.61,49 40.559,55.97 40.938,65L9.063,65C9.441,55.97 16.39,49 25,49ZM57,49C57.92,49 58.816,49.101 59.688,49.25C55.573,53.252 53,58.832 53,65L46.938,65C46.827,61.561 45.937,58.337 44.5,55.438C47.433,51.518 51.864,49 57,49ZM75,49C83.872,49 91,56.128 91,65C91,73.872 83.872,81 75,81C66.128,81 59,73.872 59,65C59,56.128 66.128,49 75,49ZM74.969,51.938C73.509,51.95 72.259,53.027 72.031,54.469C71.094,54.772 70.238,55.208 69.531,55.844C68.132,57.102 67.469,58.928 67.469,60.594C67.469,63.62 69.574,65.325 71.063,66.313C72.551,67.3 74,67.813 74,67.813C74,67.813 74.841,68.136 75.625,68.656C76.409,69.176 76.531,69.632 76.531,69.375C76.531,69.595 76.547,69.586 76.469,69.656C76.391,69.726 76.052,70 75,70L70,70C69.986,70 69.972,70 69.958,70C68.312,70 66.957,71.354 66.957,73C66.957,74.646 68.312,76 69.958,76C69.972,76 69.986,76 70,76L72.156,76C72.558,77.232 73.713,78.071 75.009,78.071C76.47,78.071 77.729,77.004 77.969,75.563C78.907,75.251 79.762,74.761 80.469,74.125C81.868,72.867 82.531,71.041 82.531,69.375C82.531,66.349 80.426,64.644 78.938,63.656C77.449,62.669 76,62.156 76,62.156C76,62.156 75.159,61.833 74.375,61.313C73.591,60.792 73.469,60.337 73.469,60.594C73.469,60.374 73.453,60.383 73.531,60.313C73.609,60.243 73.948,60 75,60L80,60C80.014,60 80.028,60 80.042,60C81.688,60 83.043,58.646 83.043,57C83.043,55.354 81.688,54 80.042,54C80.028,54 80.014,54 80,54L77.844,54C77.437,52.764 76.27,51.927 74.969,51.938Z" style="fill-rule:nonzero;"/>
</svg>
