<?xml version="1.0" encoding="UTF-8" standalone="no"?>
<!DOCTYPE svg PUBLIC "-//W3C//DTD SVG 1.1//EN" "http://www.w3.org/Graphics/SVG/1.1/DTD/svg11.dtd">
<svg width="100%" height="100%" viewBox="0 0 512 518" version="1.1" xmlns="http://www.w3.org/2000/svg" xmlns:xlink="http://www.w3.org/1999/xlink" xml:space="preserve" xmlns:serif="http://www.serif.com/" style="fill-rule:evenodd;clip-rule:evenodd;stroke-linejoin:round;stroke-miterlimit:1.41421;">
    <g>
        <path d="M94.426,22C74.73,22 58.706,38.024 58.706,57.72C58.706,77.416 74.73,93.44 94.426,93.44L359.507,93.44C346.051,71.803 346.051,43.637 359.507,22L94.426,22Z" style="fill-rule:nonzero;"/>
        <g>
            <rect x="348.234" y="377.163" width="43.185" height="45.161"/>
            <rect x="259.643" y="192.912" width="43.185" height="45.161"/>
            <rect x="171.052" y="377.163" width="43.185" height="45.161"/>
            <path d="M416.874,22.007C397.328,22.16 381.44,38.163 381.44,57.72C381.44,77.416 397.463,93.44 417.158,93.44C426.028,93.44 433.217,100.629 433.217,109.499C433.217,118.369 426.028,125.558 417.158,125.558L109.865,125.558L109.865,490L453.294,490L453.294,58.706C453.294,38.607 436.964,22.162 416.874,22.007ZM423.537,438.382C423.537,447.252 416.348,454.441 407.478,454.441L332.175,454.441C323.305,454.441 316.116,447.252 316.116,438.382L316.116,361.103C316.116,352.233 323.305,345.044 332.175,345.044L353.767,345.044L353.767,325.718L208.703,325.718L208.703,345.044L230.295,345.044C239.164,345.044 246.354,352.233 246.354,361.103L246.354,438.382C246.354,447.252 239.164,454.441 230.295,454.441L154.992,454.441C146.123,454.441 138.933,447.252 138.933,438.382L138.933,361.103C138.933,352.233 146.123,345.044 154.992,345.044L176.584,345.044L176.584,309.66C176.584,300.79 183.774,293.601 192.643,293.601L265.559,293.601L265.559,270.19L243.583,270.19C234.714,270.19 227.524,263.001 227.524,254.131L227.524,176.852C227.524,167.982 234.714,160.793 243.583,160.793L318.886,160.793C327.756,160.793 334.945,167.982 334.945,176.852L334.945,254.131C334.945,263.001 327.756,270.19 318.886,270.19L297.677,270.19L297.677,293.601L369.826,293.601C378.696,293.601 385.885,300.79 385.885,309.66L385.885,345.045L407.477,345.045C416.347,345.045 423.536,352.234 423.536,361.104L423.536,438.382L423.537,438.382Z" style="fill-rule:nonzero;"/>
        </g>
    </g>
</svg>
