<?xml version="1.0" encoding="UTF-8" standalone="no"?>
<!DOCTYPE svg PUBLIC "-//W3C//DTD SVG 1.1//EN" "http://www.w3.org/Graphics/SVG/1.1/DTD/svg11.dtd">
<svg width="100%" height="100%" viewBox="0 0 32 31" version="1.1" xmlns="http://www.w3.org/2000/svg" xmlns:xlink="http://www.w3.org/1999/xlink" xml:space="preserve" xmlns:serif="http://www.serif.com/" style="fill-rule:evenodd;clip-rule:evenodd;stroke-linejoin:round;stroke-miterlimit:1.41421;">
    <g>
        <path d="M0,24.147L11.777,24.147L16,30.293L20.223,24.147L32,24.147L32,1.707L0,1.707L0,24.147ZM8.005,11.986L10.445,11.739C10.584,11.219 10.798,10.73 11.071,10.282L9.498,8.333L11.193,6.615L13.193,8.274C13.611,8.051 14.06,7.879 14.534,7.771L14.797,5.102L17.203,5.102L17.466,7.771C17.939,7.879 18.389,8.051 18.807,8.274L20.807,6.615L22.502,8.333L20.929,10.282C21.202,10.73 21.416,11.219 21.555,11.739L23.995,11.986L23.995,14.416L21.552,14.664C21.412,15.183 21.201,15.672 20.928,16.119L22.502,18.07L20.807,19.788L18.808,18.13C18.39,18.353 17.94,18.525 17.467,18.633L17.204,21.302L16.006,21.302L15.996,21.302L14.798,21.302L14.535,18.633C14.062,18.525 13.612,18.353 13.194,18.13L11.195,19.788L9.498,18.07L11.072,16.119C10.799,15.672 10.589,15.182 10.448,14.664L8.005,14.416L8.005,11.986Z" style="fill-rule:nonzero;"/>
        <path d="M16,16.857C17.991,16.857 19.605,15.22 19.605,13.202C19.605,11.183 17.991,9.547 16,9.547C14.009,9.547 12.395,11.183 12.395,13.202C12.395,15.22 14.009,16.857 16,16.857ZM16,11.423C16.969,11.423 17.754,12.219 17.754,13.201C17.754,14.183 16.969,14.98 16,14.98C15.031,14.98 14.246,14.184 14.246,13.202C14.246,12.22 15.031,11.423 16,11.423Z" style="fill-rule:nonzero;"/>
    </g>
</svg>
