<?xml version="1.0" encoding="UTF-8" standalone="no"?>
<!DOCTYPE svg PUBLIC "-//W3C//DTD SVG 1.1//EN" "http://www.w3.org/Graphics/SVG/1.1/DTD/svg11.dtd">
<svg width="100%" height="100%" viewBox="0 0 100 97" version="1.1" xmlns="http://www.w3.org/2000/svg" xmlns:xlink="http://www.w3.org/1999/xlink" xml:space="preserve" xmlns:serif="http://www.serif.com/" style="fill-rule:evenodd;clip-rule:evenodd;stroke-linejoin:round;stroke-miterlimit:1.41421;">
    <path d="M85.025,70.614C85.025,70.122 84.626,69.723 84.135,69.723L71.878,69.723C71.387,69.723 70.988,70.122 70.988,70.614L70.988,78.029C70.988,78.521 71.387,78.92 71.878,78.92L84.135,78.92C84.626,78.92 85.025,78.521 85.025,78.029L85.025,70.614Z"/>
    <path d="M40.552,51.467C41.094,51.638 41.663,51.704 42.23,51.661L47.734,51.19L64.358,49.768C66.502,49.584 68.168,47.767 68.168,45.615C68.168,44.85 67.958,44.1 67.559,43.446C66.792,42.414 65.663,41.708 64.398,41.472L49.8,39.293L39.253,37.717C38.429,37.594 37.812,36.878 37.812,36.045C37.812,35.117 38.576,34.353 39.504,34.353C39.587,34.353 39.671,34.36 39.754,34.372L65.115,38.157C66.26,38.318 67.346,38.767 68.27,39.461L73.523,39.461L61.677,25.82C59.261,22.781 55.694,20.87 51.826,20.541L22.67,18.014L23.089,16.695C23.501,15.401 22.776,13.998 21.483,13.585L15.632,11.712C14.338,11.304 12.937,12.027 12.522,13.319L5.115,36.459C4.706,37.752 5.43,39.154 6.721,39.569L12.583,41.441C12.828,41.52 13.083,41.56 13.34,41.56C14.411,41.56 15.365,40.864 15.693,39.845L15.898,39.17L19.018,43.651C19.557,44.428 20.337,45.007 21.238,45.298L23.693,46.086L39.683,51.19L40.552,51.467Z" style="fill-rule:nonzero;"/>
    <path d="M88.405,43.247L71.595,43.247C71.972,44.441 72.058,45.707 71.845,46.941L88.405,46.941C89.995,46.943 91.304,48.251 91.306,49.842L91.306,53.264L66.131,53.264C65.657,53.401 65.172,53.493 64.681,53.54L42.553,55.432C42.296,55.451 42.093,55.458 41.89,55.458C41.044,55.46 40.202,55.329 39.396,55.071L33.736,53.264L32.199,53.264L32.199,52.774L28.504,51.595L28.504,81.807C28.508,85.424 31.483,88.398 35.099,88.403L88.405,88.403C92.021,88.398 94.996,85.424 95,81.807L95,49.842C94.996,46.225 92.021,43.251 88.405,43.247ZM91.306,81.807C91.304,83.398 89.995,84.707 88.405,84.708L35.099,84.708C33.509,84.707 32.2,83.398 32.199,81.807L32.199,60.653L91.306,60.653L91.306,81.807Z" style="fill-rule:nonzero;"/>
</svg>
