<?xml version="1.0" encoding="UTF-8" standalone="no"?>
<!DOCTYPE svg PUBLIC "-//W3C//DTD SVG 1.1//EN" "http://www.w3.org/Graphics/SVG/1.1/DTD/svg11.dtd">
<svg width="100%" height="100%" viewBox="0 0 100 99" version="1.1" xmlns="http://www.w3.org/2000/svg" xmlns:xlink="http://www.w3.org/1999/xlink" xml:space="preserve" xmlns:serif="http://www.serif.com/" style="fill-rule:evenodd;clip-rule:evenodd;stroke-linejoin:round;stroke-miterlimit:1.41421;">
    <path d="M78,46.47L74.15,46.47C71.174,46.471 68.279,47.456 65.92,49.27C63.619,44.772 58.972,41.934 53.92,41.94L46.06,41.94C41.008,41.934 36.361,44.772 34.06,49.27C31.701,47.456 28.806,46.471 25.83,46.47L22,46.47C14.578,46.481 8.472,52.578 8.45,60L8.45,78.11C8.455,79.977 9.993,81.51 11.86,81.51L32.59,81.51L32.59,85.28C32.59,87.145 34.125,88.68 35.99,88.68L64,88.68C65.865,88.68 67.4,87.145 67.4,85.28L67.4,81.51L88.14,81.51C90.007,81.51 91.545,79.977 91.55,78.11L91.55,60C91.528,52.578 85.422,46.481 78,46.47ZM15.26,74.7L15.26,60C15.276,56.314 18.314,53.29 22,53.29L25.85,53.29C29.536,53.29 32.574,56.314 32.59,60L32.59,74.7L15.26,74.7ZM60.6,81.87L39.4,81.87L39.4,55.41C39.405,51.759 42.409,48.755 46.06,48.75L53.94,48.75C57.591,48.755 60.595,51.759 60.6,55.41L60.6,81.87ZM84.74,74.7L67.41,74.7L67.41,60C67.415,56.306 70.456,53.27 74.15,53.27L78,53.27C81.694,53.27 84.735,56.306 84.74,60L84.74,74.7ZM50,39.69C57.784,39.69 64.19,33.284 64.19,25.5C64.19,17.716 57.784,11.31 50,11.31C42.216,11.31 35.81,17.716 35.81,25.5C35.821,33.28 42.22,39.679 50,39.69ZM50,18.13C50.003,18.13 50.007,18.13 50.01,18.13C54.059,18.13 57.39,21.461 57.39,25.51C57.39,29.559 54.059,32.89 50.01,32.89C45.961,32.89 42.63,29.559 42.63,25.51C42.63,25.507 42.63,25.503 42.63,25.5C42.635,21.459 45.959,18.135 50,18.13ZM76.07,45.28C76.073,45.28 76.077,45.28 76.08,45.28C83.047,45.28 88.78,39.547 88.78,32.58C88.78,25.613 83.047,19.88 76.08,19.88C69.113,19.88 63.38,25.613 63.38,32.58C63.38,32.583 63.38,32.587 63.38,32.59C63.396,39.545 69.115,45.264 76.07,45.28ZM76.07,26.7C76.073,26.7 76.077,26.7 76.08,26.7C79.311,26.7 81.97,29.359 81.97,32.59C81.97,35.821 79.311,38.48 76.08,38.48C72.849,38.48 70.19,35.821 70.19,32.59C70.19,29.363 72.843,26.705 76.07,26.7ZM23.93,19.89C23.927,19.89 23.923,19.89 23.92,19.89C16.953,19.89 11.22,25.623 11.22,32.59C11.22,39.557 16.953,45.29 23.92,45.29C30.887,45.29 36.62,39.557 36.62,32.59C36.609,25.631 30.889,19.906 23.93,19.89ZM23.93,38.47C23.927,38.47 23.923,38.47 23.92,38.47C20.689,38.47 18.03,35.811 18.03,32.58C18.03,29.349 20.689,26.69 23.92,26.69C27.151,26.69 29.81,29.349 29.81,32.58C29.81,32.583 29.81,32.587 29.81,32.59C29.805,35.814 27.154,38.465 23.93,38.47Z" style="fill-rule:nonzero;"/>
</svg>
