<?xml version="1.0" encoding="UTF-8" standalone="no"?>
<!DOCTYPE svg PUBLIC "-//W3C//DTD SVG 1.1//EN" "http://www.w3.org/Graphics/SVG/1.1/DTD/svg11.dtd">
<svg width="100%" height="100%" viewBox="0 0 33 33" version="1.1" xmlns="http://www.w3.org/2000/svg" xmlns:xlink="http://www.w3.org/1999/xlink" xml:space="preserve" xmlns:serif="http://www.serif.com/" style="fill-rule:evenodd;clip-rule:evenodd;stroke-linejoin:round;stroke-miterlimit:1.41421;">
    <path d="M23.625,20.749C23.625,20.749 24.492,20.61 25.121,19.847C25.902,18.9 25.662,17.78 24.861,17.085C24.861,17.085 22.164,14.735 19.545,12.473L18.639,13.193C11.955,18.353 9.578,13.873 10.17,12.365L14.215,8.305C12.139,7.807 9.754,9.868 9.754,9.868L4.979,12.995L4.979,23.419L9.018,23.68L9.336,23.866L10.981,25.068C12.413,26.041 14.545,26.349 15.68,25.516C15.68,25.516 18,26.319 19.414,25.309C20.328,24.656 20.357,24.204 20.408,24.217C21.023,24.378 22.441,24.048 23.201,23.172C24.127,22.103 23.625,20.749 23.625,20.749Z" style="fill-rule:nonzero;"/>
    <path d="M14.891,8.672C12.389,11.173 10.901,12.751 10.901,12.751C10.901,12.751 10.665,14.406 12.932,14.783C15.289,15.175 18.276,12.502 19.557,11.359C19.557,11.359 25.213,16.288 25.6,16.615C26.016,16.966 26.846,18.239 26.084,19.85C25.609,20.853 24.574,21.172 24.574,21.172C24.574,21.172 24.804,22.45 23.986,23.434C23.697,23.782 23.136,24.232 23.136,24.232C24.409,24.677 27.046,24.476 28.021,23.419C28.021,22.19 28.021,12.433 28.021,12.433L21.4,8.221C17.025,5.347 15.133,8.429 14.891,8.672Z" style="fill-rule:nonzero;"/>
    <path d="M31.666,11.859L29.689,11.859C29.228,11.859 28.855,12.233 28.855,12.692L28.855,23.249C28.855,23.709 29.228,24.082 29.689,24.082L31.666,24.082C32.127,24.082 32.5,23.709 32.5,23.249L32.5,12.692C32.5,12.232 32.127,11.859 31.666,11.859Z" style="fill-rule:nonzero;"/>
    <path d="M3.312,11.859L1.334,11.859C0.873,11.859 0.5,12.233 0.5,12.692L0.5,23.249C0.5,23.709 0.873,24.082 1.334,24.082L3.312,24.082C3.772,24.082 4.145,23.709 4.145,23.249L4.145,12.692C4.145,12.232 3.771,11.859 3.312,11.859Z" style="fill-rule:nonzero;"/>
</svg>
