<?xml version="1.0" encoding="UTF-8" standalone="no"?>
<!DOCTYPE svg PUBLIC "-//W3C//DTD SVG 1.1//EN" "http://www.w3.org/Graphics/SVG/1.1/DTD/svg11.dtd">
<svg width="100%" height="100%" viewBox="0 0 70 71" version="1.1" xmlns="http://www.w3.org/2000/svg" xmlns:xlink="http://www.w3.org/1999/xlink" xml:space="preserve" xmlns:serif="http://www.serif.com/" style="fill-rule:evenodd;clip-rule:evenodd;stroke-linejoin:round;stroke-miterlimit:1.41421;">
    <g>
        <path d="M43.517,24.707C43.487,28.027 43.207,31.117 42.497,33.187C42.707,33.297 42.927,33.387 43.157,33.477C43.667,33.667 43.927,34.247 43.727,34.767C43.527,35.317 42.917,35.537 42.437,35.337C42.167,35.237 41.897,35.127 41.637,35.007C41.267,35.627 40.797,36.287 40.257,36.957C41.127,37.197 42.057,37.317 43.037,37.287L43.187,42.197C40.857,42.267 38.737,41.507 37.287,40.257C34.397,43.167 30.797,46.197 27.637,48.707C27.597,48.737 27.557,48.777 27.507,48.797C28.697,53.047 32.227,59.407 34.667,63.507C36.087,65.897 38.957,66.987 41.597,66.127C47.027,64.387 55.777,61.257 58.487,58.437C62.497,54.257 66.667,36.787 66.667,36.787C59.667,29.527 51.957,25.497 43.517,24.707ZM34.347,52.717C34.347,52.717 41.697,48.547 43.967,49.407C46.237,50.267 48.977,58.247 48.977,58.247C44.627,55.037 39.737,53.187 34.347,52.717ZM59.137,45.347C56.837,47.807 52.437,47.437 49.317,44.517L52.667,40.937C54.987,43.097 57.997,43.867 60.337,43.117C60.137,43.947 59.737,44.717 59.137,45.347ZM62.637,39.737C59.957,40.947 56.907,40.807 54.207,39.797C53.687,39.597 53.427,39.017 53.627,38.507C53.817,37.987 54.397,37.727 54.917,37.917C57.317,38.827 59.777,38.827 61.827,37.907C62.327,37.687 62.917,37.917 63.147,38.417C63.367,38.917 63.147,39.517 62.637,39.737Z" style="fill-rule:nonzero;"/>
        <path d="M40.437,8.157C27.547,2.057 15.547,2.057 4.417,8.157C4.417,8.157 1.977,27.287 4.417,32.997C6.067,36.857 13.667,43.327 18.447,47.137C20.777,48.997 24.077,48.997 26.397,47.137C31.197,43.327 38.787,36.857 40.437,32.997C42.877,27.287 40.437,8.157 40.437,8.157ZM7.277,15.537C6.887,15.147 6.887,14.517 7.277,14.127C9.387,12.037 12.367,10.887 15.677,10.887C16.227,10.887 16.677,11.337 16.677,11.887C16.677,12.437 16.227,12.887 15.677,12.887C12.897,12.887 10.417,13.827 8.687,15.547C8.292,15.941 7.649,15.928 7.277,15.537ZM8.977,21.857C8.867,20.937 8.977,20.017 9.337,19.157C10.717,15.807 15.277,14.517 19.517,16.267L17.507,21.137C14.367,19.837 11.047,20.207 8.977,21.857ZM22.417,39.357C18.357,39.357 9.327,28.477 9.327,28.477C18.057,30.927 26.797,30.927 35.527,28.477C35.527,28.477 26.487,39.357 22.417,39.357ZM35.867,21.857C33.807,20.207 30.487,19.837 27.347,21.137L25.337,16.267C29.577,14.517 34.137,15.807 35.517,19.157C35.877,20.017 35.987,20.937 35.867,21.857ZM37.477,15.417C37.107,15.787 36.489,15.835 36.057,15.447C34.337,13.797 31.897,12.887 29.177,12.887C28.627,12.887 28.177,12.437 28.177,11.887C28.177,11.337 28.627,10.887 29.177,10.887C32.407,10.887 35.347,11.997 37.437,13.997C37.837,14.377 37.857,15.017 37.477,15.417Z" style="fill-rule:nonzero;"/>
    </g>
</svg>
