<?xml version="1.0" encoding="UTF-8" standalone="no"?>
<!DOCTYPE svg PUBLIC "-//W3C//DTD SVG 1.1//EN" "http://www.w3.org/Graphics/SVG/1.1/DTD/svg11.dtd">
<svg width="100%" height="100%" viewBox="0 0 100 101" version="1.1" xmlns="http://www.w3.org/2000/svg" xmlns:xlink="http://www.w3.org/1999/xlink" xml:space="preserve" xmlns:serif="http://www.serif.com/" style="fill-rule:evenodd;clip-rule:evenodd;stroke-linejoin:round;stroke-miterlimit:1.41421;">
    <g>
        <path d="M86.4,73.8L86.4,70.5C86.4,63.7 80.8,58.1 74,58.1L53.2,58.1L53.2,46.2L68.6,39.2C69.7,38.7 70.5,37.5 70.5,36.3L70.5,13.6C70.5,12.3 69.8,11.2 68.6,10.7L51.3,2.8C50.4,2.4 49.5,2.4 48.6,2.8L31.3,10.7C30.2,11.2 29.4,12.4 29.4,13.6L29.4,36.3C29.4,37.6 30.1,38.7 31.3,39.2L46.7,46.2L46.7,58.1L26,58.1C19.2,58.1 13.6,63.7 13.6,70.5L13.6,73.8C8.8,74.2 4.9,78.2 4.9,83.2L4.9,88C4.9,93.2 9.2,97.5 14.4,97.5L19.2,97.5C24.4,97.5 28.7,93.2 28.7,88L28.7,83.2C28.7,78.2 24.9,74.2 20,73.8L20,70.5C20,67.2 22.7,64.5 26,64.5L46.8,64.5L46.8,73.7C42,74.1 38.1,78.1 38.1,83.1L38.1,88C38.1,93.2 42.4,97.5 47.6,97.5L52.4,97.5C57.6,97.5 61.9,93.2 61.9,88L61.9,83.2C61.9,78.2 58.1,74.2 53.2,73.8L53.2,64.6L74,64.6C77.3,64.6 80,67.3 80,70.6L80,73.9C75.2,74.3 71.3,78.3 71.3,83.3L71.3,88C71.3,93.2 75.6,97.5 80.8,97.5L85.6,97.5C90.8,97.5 95.1,93.2 95.1,88L95.1,83.2C95.1,78.2 91.3,74.2 86.4,73.8ZM53.2,39.2L53.2,23.6L64,18.6L64,34.2L53.2,39.2ZM50,9.3L59.5,13.6L50,18L40.5,13.7L50,9.3ZM36,34.2L36,18.6L46.8,23.5L46.8,39.1L36,34.2ZM22.3,83.2L22.3,88C22.3,89.7 20.9,91 19.3,91L14.5,91C12.8,91 11.5,89.6 11.5,88L11.5,83.2C11.5,81.5 12.9,80.2 14.5,80.2L19.3,80.2C20.9,80.1 22.3,81.5 22.3,83.2ZM55.5,83.2L55.5,88C55.5,89.7 54.1,91 52.5,91L47.7,91C46,91 44.7,89.6 44.7,88L44.7,83.2C44.7,81.5 46.1,80.2 47.7,80.2L52.5,80.2C54.1,80.1 55.5,81.5 55.5,83.2ZM88.6,88C88.6,89.7 87.2,91 85.6,91L80.8,91C79.1,91 77.8,89.6 77.8,88L77.8,83.2C77.8,81.5 79.2,80.2 80.8,80.2L85.6,80.2C87.3,80.2 88.6,81.6 88.6,83.2L88.6,88Z" style="fill-rule:nonzero;"/>
    </g>
</svg>
