<?xml version="1.0" encoding="UTF-8" standalone="no"?>
<!DOCTYPE svg PUBLIC "-//W3C//DTD SVG 1.1//EN" "http://www.w3.org/Graphics/SVG/1.1/DTD/svg11.dtd">
<svg width="100%" height="100%" viewBox="0 0 24 25" version="1.1" xmlns="http://www.w3.org/2000/svg" xmlns:xlink="http://www.w3.org/1999/xlink" xml:space="preserve" xmlns:serif="http://www.serif.com/" style="fill-rule:evenodd;clip-rule:evenodd;stroke-linejoin:round;stroke-miterlimit:1.41421;">
    <g transform="matrix(1,0,0,1,-198,-1160)">
        <path d="M215,1167L218.994,1167C220.653,1167 222,1168.34 222,1170L222,1181.01C222,1182.66 220.659,1184 219.005,1184L207.995,1184C206.34,1184 205,1182.66 205,1181L205,1177.29C205,1177.19 205.014,1177.09 205.041,1177L200.992,1177C199.34,1177 198,1175.66 198,1174.01L198,1162.99C198,1161.34 199.341,1160 200.992,1160L212.008,1160C213.66,1160 215,1161.34 215,1162.99L215,1167ZM200,1162.99L200,1174.01C200,1174.56 200.445,1175 200.992,1175L212.008,1175C212.555,1175 213,1174.56 213,1174.01L213,1162.99C213,1162.44 212.555,1162 212.008,1162L200.992,1162C200.445,1162 200,1162.44 200,1162.99ZM215,1169L215,1174.01C215,1175.66 213.659,1177 212.008,1177L206.959,1177C206.986,1177.09 207,1177.19 207,1177.29L207,1181C207,1181.56 207.445,1182 207.995,1182L219.005,1182C219.555,1182 220,1181.56 220,1181.01L220,1170C220,1169.45 219.551,1169 218.994,1169L215,1169Z" style="fill-rule:nonzero;"/>
    </g>
</svg>
