<?xml version="1.0" encoding="UTF-8" standalone="no"?>
<!DOCTYPE svg PUBLIC "-//W3C//DTD SVG 1.1//EN" "http://www.w3.org/Graphics/SVG/1.1/DTD/svg11.dtd">
<svg width="100%" height="100%" viewBox="0 0 100 101" version="1.1" xmlns="http://www.w3.org/2000/svg" xmlns:xlink="http://www.w3.org/1999/xlink" xml:space="preserve" xmlns:serif="http://www.serif.com/" style="fill-rule:evenodd;clip-rule:evenodd;stroke-linejoin:round;stroke-miterlimit:1.41421;">
    <path d="M92.508,64.213L89.749,64.078C88.295,63.902 87.051,62.939 86.516,61.576C86.396,61.262 86.266,60.95 86.129,60.641C85.542,59.3 85.74,57.739 86.644,56.587L88.501,54.539C89.421,53.504 89.382,51.914 88.412,50.926L86.06,48.574C85.78,48.299 85.441,48.092 85.068,47.97C84.175,50.881 81.547,52.938 78.507,53.107L74.499,53.302C74.07,53.388 73.679,53.611 73.387,53.938C73.15,54.167 72.962,54.441 72.834,54.745C72.635,55.26 72.424,55.768 72.2,56.27C71.909,56.985 71.968,57.797 72.358,58.463L73.095,59.275C76.593,61.014 78.814,64.599 78.814,68.506C78.814,74.16 74.16,78.814 68.506,78.814C64.599,78.814 61.015,76.593 59.276,73.095L58.463,72.358C57.796,71.967 56.984,71.909 56.269,72.201C55.769,72.424 55.263,72.634 54.751,72.831C54.445,72.96 54.169,73.149 53.938,73.387C53.611,73.679 53.388,74.07 53.303,74.5L53.106,78.505C52.939,81.546 50.881,84.175 47.97,85.068C48.092,85.441 48.299,85.78 48.574,86.06L50.926,88.412C51.914,89.382 53.504,89.421 54.539,88.501L56.587,86.644C57.739,85.74 59.3,85.542 60.642,86.129C60.95,86.267 61.262,86.396 61.576,86.517C62.939,87.051 63.902,88.295 64.078,89.749L64.213,92.508C64.294,93.89 65.446,94.987 66.83,95L70.156,95C71.54,94.987 72.692,93.89 72.773,92.508L72.908,89.749C73.084,88.295 74.048,87.051 75.411,86.516C75.725,86.396 76.037,86.267 76.345,86.129C77.687,85.542 79.248,85.74 80.399,86.644L82.448,88.501C83.482,89.421 85.072,89.382 86.06,88.412L88.412,86.06C89.382,85.072 89.421,83.482 88.501,82.448L86.644,80.399C85.74,79.247 85.542,77.686 86.129,76.345C86.267,76.036 86.396,75.725 86.517,75.411C87.051,74.048 88.295,73.084 89.749,72.909L92.508,72.773C93.89,72.692 94.987,71.541 95,70.156L95,66.83C94.987,65.446 93.89,64.294 92.508,64.213Z" style="fill-rule:nonzero;"/>
    <path d="M8.617,49.69L12.623,49.887C14.733,50.142 16.539,51.54 17.315,53.519C17.49,53.975 17.678,54.427 17.877,54.876C18.73,56.823 18.442,59.089 17.13,60.761L14.434,63.734C13.099,65.235 13.156,67.544 14.563,68.978L17.977,72.392C19.411,73.799 21.719,73.856 23.221,72.521L26.194,69.825C27.867,68.513 30.133,68.226 32.08,69.078C32.528,69.278 32.98,69.465 33.436,69.64C35.415,70.416 36.813,72.222 37.068,74.332L37.264,78.338C37.382,80.344 39.054,81.936 41.063,81.955L45.892,81.955C47.901,81.936 49.573,80.344 49.69,78.338L49.887,74.332C50.142,72.222 51.54,70.416 53.519,69.64C53.975,69.465 54.427,69.277 54.876,69.077C56.822,68.225 59.088,68.513 60.76,69.825L63.734,72.521C65.235,73.856 67.544,73.799 68.978,72.392L72.392,68.978C73.799,67.544 73.856,65.236 72.521,63.734L69.825,60.761C68.513,59.088 68.225,56.822 69.078,54.875C69.278,54.427 69.465,53.975 69.64,53.519C70.416,51.54 72.222,50.142 74.332,49.887L78.338,49.69C80.343,49.573 81.936,47.901 81.955,45.892L81.955,41.063C81.935,39.054 80.343,37.382 78.338,37.264L74.332,37.068C72.222,36.813 70.416,35.415 69.64,33.436C69.465,32.98 69.277,32.528 69.077,32.079C68.225,30.132 68.513,27.866 69.825,26.194L72.521,23.221C73.856,21.719 73.799,19.411 72.392,17.977L68.978,14.563C67.544,13.156 65.236,13.099 63.734,14.434L60.76,17.13C59.088,18.442 56.822,18.729 54.875,17.877C54.427,17.677 53.975,17.49 53.519,17.315C51.54,16.539 50.142,14.733 49.887,12.623L49.69,8.617C49.573,6.611 47.901,5.019 45.892,5L41.063,5C39.054,5.019 37.382,6.611 37.264,8.617L37.068,12.623C36.813,14.733 35.415,16.539 33.436,17.315C32.98,17.49 32.528,17.678 32.079,17.878C30.132,18.73 27.866,18.442 26.194,17.13L23.221,14.434C21.719,13.099 19.411,13.156 17.977,14.563L14.562,17.977C13.156,19.411 13.099,21.719 14.434,23.221L17.13,26.194C18.442,27.867 18.729,30.133 17.877,32.08C17.677,32.528 17.49,32.98 17.315,33.436C16.539,35.415 14.733,36.813 12.623,37.068L8.617,37.264C6.611,37.382 5.019,39.054 5,41.063L5,45.892C5.019,47.901 6.611,49.573 8.617,49.69ZM43.477,27.977C51.98,27.977 58.977,34.974 58.977,43.477C58.977,51.981 51.98,58.977 43.477,58.977C34.974,58.977 27.977,51.981 27.977,43.477C27.977,43.477 27.977,43.477 27.977,43.477C27.977,34.974 34.974,27.977 43.477,27.977C43.477,27.977 43.477,27.977 43.477,27.977Z" style="fill-rule:nonzero;"/>
</svg>
