<?xml version="1.0" encoding="UTF-8" standalone="no"?>
<!DOCTYPE svg PUBLIC "-//W3C//DTD SVG 1.1//EN" "http://www.w3.org/Graphics/SVG/1.1/DTD/svg11.dtd">
<svg width="100%" height="100%" viewBox="0 0 100 103" version="1.1" xmlns="http://www.w3.org/2000/svg" xmlns:xlink="http://www.w3.org/1999/xlink" xml:space="preserve" xmlns:serif="http://www.serif.com/" style="fill-rule:evenodd;clip-rule:evenodd;stroke-linejoin:round;stroke-miterlimit:1.41421;">
    <g>
        <g>
            <path d="M56.1,6.5C31.9,5.3 11.8,24.1 10.6,47.9L5.5,47.9C3.1,47.9 1.7,50.5 2.9,52.5L13.5,69.8C14.7,71.7 17.5,71.7 18.7,69.8L29.3,52.5C30.5,50.5 29.1,47.9 26.7,47.9L20.9,47.9C22,30 37.1,15.9 55.4,16.7C72.5,17.4 86.7,31.7 87.2,48.9C87.8,67.8 72.6,83.3 53.9,83.3C46.3,83.3 38.9,80.7 33,75.9C32.2,75.2 31,75.3 30.3,76.1L26.1,80.8C25.3,81.6 25.4,83 26.3,83.7C34.1,90.1 43.8,93.6 54,93.6C78.6,93.6 98.5,73.1 97.5,48.2C96.5,26 78.3,7.6 56.1,6.5Z" style="fill-rule:nonzero;"/>
            <path d="M56.2,25.3L51.7,25.3C50.8,25.3 50.1,26 50.1,26.9L50.1,30.9L49.6,31C43.9,32.3 40.1,37.6 40.6,43.5C41.2,49.4 46.5,54 52.6,54L55.6,54C56.7,54 57.7,54.5 58.4,55.3C59.1,56.1 59.5,57.2 59.4,58.2C59.2,60.1 57.4,61.6 55.3,61.6L51.3,61.6C50.2,61.6 49.2,60.8 48.9,59.7C48.7,59 48.1,58.5 47.3,58.5L42.7,58.5C42.2,58.5 41.8,58.7 41.5,59C41.2,59.3 41.1,59.8 41.1,60.2C41.6,64.7 45,68.4 49.5,69.2L49.9,69.3L49.9,73.2C49.9,74.1 50.6,74.8 51.5,74.8L56,74.8C56.9,74.8 57.6,74.1 57.6,73.2L57.6,69L58,68.9C62.9,67.7 66.5,63.6 67,58.8C67.3,55.5 66.2,52.3 64,49.8C61.8,47.4 58.7,46 55.4,46L51.9,46C50.8,46 49.8,45.5 49.1,44.7C48.4,43.9 48,42.8 48.1,41.7C48.3,39.8 50.1,38.3 52.2,38.3L56.2,38.3C57.3,38.3 58.3,39.1 58.6,40.2C58.8,40.9 59.4,41.5 60.2,41.5L64.8,41.5C65.3,41.5 65.7,41.3 66,41C66.3,40.7 66.5,40.2 66.4,39.8C65.9,35.3 62.5,31.6 58,30.8L57.6,30.7L57.6,26.8C57.8,26 57.1,25.3 56.2,25.3Z" style="fill-rule:nonzero;"/>
        </g>
    </g>
</svg>
