<?xml version="1.0" encoding="UTF-8" standalone="no"?>
<!DOCTYPE svg PUBLIC "-//W3C//DTD SVG 1.1//EN" "http://www.w3.org/Graphics/SVG/1.1/DTD/svg11.dtd">
<svg width="100%" height="100%" viewBox="0 0 100 99" version="1.1" xmlns="http://www.w3.org/2000/svg" xmlns:xlink="http://www.w3.org/1999/xlink" xml:space="preserve" xmlns:serif="http://www.serif.com/" style="fill-rule:evenodd;clip-rule:evenodd;stroke-linejoin:round;stroke-miterlimit:1.41421;">
    <g>
        <path d="M62.3,55.8C63.7,52.6 62.2,48.9 59,47.5L46.7,42.2C44,41 42.4,38.6 42.1,36C41.9,34 43.4,32.1 45.4,32.1L75.9,32.1C74.8,30.3 73.3,28.2 71.4,26C65.7,19.3 59.3,14.8 59.3,14.8C53.2,10.3 28.3,10.6 28.3,10.6L22.4,6.6C21.1,5.7 19.3,5.8 18.1,6.8L3.5,21C2.3,22.2 2.1,24.2 3.2,25.5C5.3,28.1 8.5,32.3 10.4,36.5C11.8,39.7 16.3,42.9 17.4,43.4C20.6,44.9 54,59.1 54,59.1C57.2,60.5 61,59 62.3,55.8Z" style="fill-rule:nonzero;"/>
        <path d="M94.3,87.6L79.3,87.6L79.3,39.6C79.3,38.8 78.9,38 78.3,37.6C77.8,37.2 77.3,37 76.7,37L47.5,37C47.7,37.3 48.1,37.6 48.6,37.8L60.9,43.1C63.6,44.3 65.7,46.4 66.9,49.2C67.1,49.6 67.2,50 67.3,50.4C68,52.8 67.8,55.4 66.8,57.7C65,61.8 61,64.5 56.6,64.5C55.1,64.5 53.6,64.2 52.2,63.6L42.8,59.6L42.8,87.6L27.7,87.6C25.9,87.6 24.5,89 24.5,90.8C24.5,92.6 25.9,94 27.7,94L94.3,94C96.1,94 97.5,92.6 97.5,90.8C97.5,89 96.1,87.6 94.3,87.6Z" style="fill-rule:nonzero;"/>
    </g>
</svg>
