<?xml version="1.0" encoding="UTF-8" standalone="no"?>
<!DOCTYPE svg PUBLIC "-//W3C//DTD SVG 1.1//EN" "http://www.w3.org/Graphics/SVG/1.1/DTD/svg11.dtd">
<svg width="100%" height="100%" viewBox="0 0 461 481" version="1.1" xmlns="http://www.w3.org/2000/svg" xmlns:xlink="http://www.w3.org/1999/xlink" xml:space="preserve" xmlns:serif="http://www.serif.com/" style="fill-rule:evenodd;clip-rule:evenodd;stroke-linejoin:round;stroke-miterlimit:1.41421;">
    <path d="M383.947,0.002C383.437,0.008 382.926,0.034 382.416,0.082C353.797,2.666 335.32,70.514 336.818,158.646C338.023,158.549 339.311,158.136 340.875,158.162C342.651,158.001 344.413,157.933 346.154,157.951C347.896,157.969 349.618,158.073 351.316,158.262C353.015,158.451 354.689,158.726 356.336,159.078C357.982,159.431 359.6,159.861 361.186,160.369C364.357,161.385 367.398,162.702 370.273,164.291C373.149,165.88 375.859,167.741 378.367,169.84C380.876,171.939 383.183,174.277 385.254,176.822C387.325,179.368 389.16,182.12 390.723,185.049C392.286,187.978 393.576,191.084 394.561,194.332C395.053,195.956 395.468,197.616 395.803,199.309C396.137,201.001 396.389,202.726 396.557,204.479C396.694,206.248 396.744,208.002 396.705,209.738C396.666,211.474 396.539,213.191 396.332,214.885C396.125,216.578 395.837,218.248 395.469,219.891C395.101,221.533 394.652,223.146 394.131,224.729C393.089,227.893 391.75,230.929 390.143,233.799C388.535,236.669 386.658,239.376 384.547,241.881C382.436,244.386 380.092,246.691 377.539,248.76C374.987,250.829 372.229,252.663 369.297,254.225C366.365,255.787 363.257,257.076 360.008,258.061C358.383,258.553 356.724,258.969 355.031,259.303C353.339,259.637 351.616,259.889 349.863,260.057C349.06,260.221 347.898,260.289 346.742,260.359C360.873,337.751 388.011,392.251 414.652,389.547C447.662,386.567 467.227,296.807 458.146,189.178C449.633,88.275 419.202,7.657 388.545,0.514C387.012,0.156 385.479,-0.015 383.947,0.002ZM355.758,15.377C352.864,17.048 349.384,19.378 345.117,23.127C307.404,55.834 239.096,129.68 69,143.633L68.898,144.014C58.47,144.89 53.602,184.359 58.061,231.629C62.418,279.278 74.297,317.119 84.725,316.244C254.821,302.291 335.828,365.178 379.434,391.133C393.149,399.293 402.945,396.211 402.945,396.211C375.67,399.094 342.585,315.612 332.336,209.301C323.343,113.518 333.691,32.297 355.758,15.377ZM53.434,148.807L46.867,149.352C16.826,151.903 -3.797,190.82 0.588,236.846C5.075,282.491 32.762,317.638 62.803,315.086L70.404,314.457C69.858,313.989 69.312,313.491 68.766,312.844C68.1,312.055 67.433,311.136 66.771,310.094C65.447,308.009 64.137,305.432 62.855,302.42C61.574,299.408 60.322,295.96 59.117,292.133C57.913,288.306 56.756,284.101 55.664,279.572C54.572,275.044 53.544,270.192 52.6,265.074C51.655,259.957 50.793,254.574 50.031,248.98C49.269,243.387 48.607,237.583 48.063,231.627C47.505,225.718 47.092,219.933 46.818,214.328C46.545,208.723 46.41,203.3 46.406,198.119C46.402,192.939 46.53,188.001 46.781,183.365C47.032,178.729 47.406,174.395 47.896,170.424C48.387,166.452 48.995,162.843 49.711,159.656C50.427,156.47 51.253,153.707 52.18,151.426C52.577,150.447 52.999,149.603 53.434,148.807ZM139.145,321.461C133.796,321.432 128.294,321.522 122.789,321.615C121.483,349.364 117.315,463.07 138.584,472.369C155.649,480.203 188.402,458.398 188.402,458.398C188.402,458.398 202.669,450.807 201.691,440.76C201.691,440.76 183.661,424.124 182.109,417.102C180.558,410.079 190.845,397.248 190.143,390.74C189.44,384.232 177.075,372.556 178.408,361.496C180.892,342.116 193.517,336.163 199.684,326.088C198.56,325.927 197.536,325.706 196.4,325.553C188.352,324.468 180.006,323.57 171.35,322.891C162.693,322.212 153.725,321.751 144.436,321.533C142.693,321.492 140.927,321.471 139.145,321.461Z" style="fill-rule:nonzero;"/>
</svg>
