<?xml version="1.0" encoding="UTF-8" standalone="no"?>
<!DOCTYPE svg PUBLIC "-//W3C//DTD SVG 1.1//EN" "http://www.w3.org/Graphics/SVG/1.1/DTD/svg11.dtd">
<svg width="100%" height="100%" viewBox="0 0 100 101" version="1.1" xmlns="http://www.w3.org/2000/svg" xmlns:xlink="http://www.w3.org/1999/xlink" xml:space="preserve" xmlns:serif="http://www.serif.com/" style="fill-rule:evenodd;clip-rule:evenodd;stroke-linejoin:round;stroke-miterlimit:1.41421;">
    <g>
        <path d="M30.9,25.5C34.1,25.5 36.7,22.9 36.7,19.7L36.7,8.3C36.7,5.1 34.1,2.5 30.9,2.5C27.7,2.5 25.1,5.1 25.1,8.3L25.1,19.7C25.1,22.9 27.7,25.5 30.9,25.5Z" style="fill-rule:nonzero;"/>
        <path d="M69.1,25.5C72.3,25.5 74.9,22.9 74.9,19.7L74.9,8.3C74.9,5.1 72.3,2.5 69.1,2.5C65.9,2.5 63.3,5.1 63.3,8.3L63.3,19.7C63.3,22.9 65.9,25.5 69.1,25.5Z" style="fill-rule:nonzero;"/>
        <path d="M83.8,15.9L79.1,15.9L79.1,19.7C79.1,25.2 74.6,29.7 69.1,29.7C63.6,29.7 59.1,25.2 59.1,19.7L59.1,15.9L40.9,15.9L40.9,19.7C40.9,25.2 36.4,29.7 30.9,29.7C25.4,29.7 20.9,25.2 20.9,19.7L20.9,15.9L16.2,15.9C9.2,15.9 3.5,21.6 3.5,28.6L3.5,84.8C3.5,91.8 9.2,97.5 16.2,97.5L83.9,97.5C90.9,97.5 96.6,91.8 96.6,84.8L96.6,28.6C96.5,21.6 90.9,15.9 83.8,15.9ZM88.1,84.8C88.1,87.1 86.2,89 83.9,89L16.2,89C13.9,89 12,87.1 12,84.8L12,42L88.1,42L88.1,84.8Z" style="fill-rule:nonzero;"/>
        <path d="M22.3,61.3L34,61.3C34.9,61.3 35.7,60.5 35.7,59.6L35.7,52.1C35.7,51.2 34.9,50.4 34,50.4L22.3,50.4C21.4,50.4 20.6,51.2 20.6,52.1L20.6,59.6C20.6,60.5 21.4,61.3 22.3,61.3Z" style="fill-rule:nonzero;"/>
        <path d="M44.2,61.3L55.9,61.3C56.8,61.3 57.6,60.5 57.6,59.6L57.6,52.1C57.6,51.2 56.8,50.4 55.9,50.4L44.2,50.4C43.3,50.4 42.5,51.2 42.5,52.1L42.5,59.6C42.5,60.5 43.2,61.3 44.2,61.3Z" style="fill-rule:nonzero;"/>
        <path d="M66,61.3L77.7,61.3C78.6,61.3 79.4,60.5 79.4,59.6L79.4,52.1C79.4,51.2 78.6,50.4 77.7,50.4L66,50.4C65.1,50.4 64.3,51.2 64.3,52.1L64.3,59.6C64.3,60.5 65.1,61.3 66,61.3Z" style="fill-rule:nonzero;"/>
        <path d="M22.3,80.6L34,80.6C34.9,80.6 35.7,79.8 35.7,78.9L35.7,71.4C35.7,70.5 34.9,69.7 34,69.7L22.3,69.7C21.4,69.7 20.6,70.5 20.6,71.4L20.6,78.9C20.6,79.8 21.4,80.6 22.3,80.6Z" style="fill-rule:nonzero;"/>
        <path d="M44.2,80.6L55.9,80.6C56.8,80.6 57.6,79.8 57.6,78.9L57.6,71.4C57.6,70.5 56.8,69.7 55.9,69.7L44.2,69.7C43.3,69.7 42.5,70.5 42.5,71.4L42.5,78.9C42.5,79.8 43.2,80.6 44.2,80.6Z" style="fill-rule:nonzero;"/>
        <path d="M66,80.6L77.7,80.6C78.6,80.6 79.4,79.8 79.4,78.9L79.4,71.4C79.4,70.5 78.6,69.7 77.7,69.7L66,69.7C65.1,69.7 64.3,70.5 64.3,71.4L64.3,78.9C64.3,79.8 65.1,80.6 66,80.6Z" style="fill-rule:nonzero;"/>
    </g>
</svg>
