<?xml version="1.0" encoding="UTF-8" standalone="no"?>
<!DOCTYPE svg PUBLIC "-//W3C//DTD SVG 1.1//EN" "http://www.w3.org/Graphics/SVG/1.1/DTD/svg11.dtd">
<svg width="100%" height="100%" viewBox="0 0 100 100" version="1.1" xmlns="http://www.w3.org/2000/svg" xmlns:xlink="http://www.w3.org/1999/xlink" xml:space="preserve" xmlns:serif="http://www.serif.com/" style="fill-rule:evenodd;clip-rule:evenodd;stroke-linejoin:round;stroke-miterlimit:1.41421;">
    <g>
        <path d="M85.7,18L66.2,18L65.6,13.5C64.7,7.1 58.7,2.5 52.3,3.4L12.7,9C6.3,9.9 1.7,15.9 2.6,22.3L10.3,76.8C10.7,79.9 12.4,82.7 14.9,84.6C17,86.1 19.4,87 22,87C22.6,87 23.1,86.9 23.7,86.9L34,85.4C34.3,91.6 39.5,96.6 45.8,96.6L85.8,96.6C92.3,96.6 97.6,91.3 97.6,84.8L97.6,29.8C97.5,23.3 92.2,18 85.7,18ZM22.7,80.7C21.2,80.9 19.8,80.5 18.6,79.6C17.4,78.7 16.6,77.4 16.4,75.9L8.8,21.5C8.4,18.5 10.5,15.6 13.5,15.2L53.1,9.6C53.4,9.6 53.6,9.5 53.9,9.5C56.6,9.5 59,11.5 59.4,14.3L59.9,17.9L45.7,17.9C42.2,17.9 39,19.5 36.8,21.9L17.8,24.6C16.1,24.8 14.9,26.4 15.1,28.1C15.3,29.7 16.6,30.8 18.2,30.8C18.3,30.8 18.5,30.8 18.6,30.8L34,28.8C34,29.1 33.9,29.5 33.9,29.9L33.9,36L19.7,38C18,38.2 16.8,39.8 17,41.5C17.2,43.1 18.6,44.2 20.1,44.2C20.3,44.2 20.4,44.2 20.6,44.2L33.9,42.3L33.9,49.4L21.6,51C19.9,51.2 18.7,52.8 18.9,54.5C19.1,56.1 20.4,57.2 22,57.2C22.1,57.2 22.3,57.2 22.4,57.2L33.9,55.6L33.9,62.7L23.4,64.2C21.7,64.4 20.5,66 20.7,67.7C20.9,69.3 22.3,70.4 23.8,70.4C23.9,70.4 24.1,70.4 24.2,70.4L33.9,69L33.9,79.1L22.7,80.7ZM91.2,84.8C91.2,87.9 88.7,90.4 85.6,90.4L45.6,90.4C42.5,90.4 40,87.9 40,84.8L40,29.8C40,26.7 42.5,24.2 45.6,24.2L85.6,24.2C88.7,24.2 91.2,26.7 91.2,29.8L91.2,84.8Z" style="fill-rule:nonzero;"/>
        <path d="M82.7,34.3L48.7,34.3C47,34.3 45.6,35.7 45.6,37.4C45.6,39.1 47,40.5 48.7,40.5L82.7,40.5C84.4,40.5 85.8,39.1 85.8,37.4C85.8,35.7 84.5,34.3 82.7,34.3Z" style="fill-rule:nonzero;"/>
        <path d="M82.7,47.6L48.7,47.6C47,47.6 45.6,49 45.6,50.7C45.6,52.4 47,53.8 48.7,53.8L82.7,53.8C84.4,53.8 85.8,52.4 85.8,50.7C85.8,49 84.5,47.6 82.7,47.6Z" style="fill-rule:nonzero;"/>
        <path d="M82.7,60.9L48.7,60.9C47,60.9 45.6,62.3 45.6,64C45.6,65.7 47,67.1 48.7,67.1L82.7,67.1C84.4,67.1 85.8,65.7 85.8,64C85.8,62.3 84.5,60.9 82.7,60.9Z" style="fill-rule:nonzero;"/>
        <path d="M82.7,74.1L48.7,74.1C47,74.1 45.6,75.5 45.6,77.2C45.6,78.9 47,80.3 48.7,80.3L82.7,80.3C84.4,80.3 85.8,78.9 85.8,77.2C85.8,75.5 84.5,74.1 82.7,74.1Z" style="fill-rule:nonzero;"/>
    </g>
</svg>
