<?xml version="1.0" encoding="UTF-8" standalone="no"?>
<!DOCTYPE svg PUBLIC "-//W3C//DTD SVG 1.1//EN" "http://www.w3.org/Graphics/SVG/1.1/DTD/svg11.dtd">
<svg width="100%" height="100%" viewBox="0 0 68 70" version="1.1" xmlns="http://www.w3.org/2000/svg" xmlns:xlink="http://www.w3.org/1999/xlink" xml:space="preserve" xmlns:serif="http://www.serif.com/" style="fill-rule:evenodd;clip-rule:evenodd;stroke-linejoin:round;stroke-miterlimit:1.41421;">
    <g>
        <path d="M17.026,14.78L21.232,8.776L14.957,9.882L10.752,15.886L17.026,14.78Z" style="fill-rule:nonzero;"/>
        <path d="M35.556,11.514L39.755,5.511L33.478,6.618L29.28,12.621L35.556,11.514Z" style="fill-rule:nonzero;"/>
        <path d="M26.292,13.147L30.49,7.144L24.223,8.249L20.017,14.253L26.292,13.147Z" style="fill-rule:nonzero;"/>
        <path d="M7.927,16.176L11.966,10.409L4.11,11.794L4.883,16.176L7.927,16.176Z" style="fill-rule:nonzero;"/>
        <path d="M22.351,60.57L17.196,58.134C16.771,58.388 16.304,58.576 15.818,58.687C15.181,58.857 14.314,58.866 13.607,58.679C13.145,58.574 12.685,58.388 12.263,58.134L7.051,60.595C6.53,60.877 5.983,61.607 5.983,62.44L5.983,66L23.47,66L23.47,62.44L23.47,62.439C23.47,61.657 23.041,60.94 22.351,60.57ZM15.799,64.323L13.652,64.323L13.652,62.781L15.799,62.781L15.799,64.323ZM15.799,61.19L13.652,61.19L13.652,59.647L15.799,59.647L15.799,61.19Z" style="fill-rule:nonzero;"/>
        <path d="M44.813,9.883L49.018,3.879L42.743,4.985L38.545,10.988L44.813,9.883Z" style="fill-rule:nonzero;"/>
        <path d="M60.247,19.215L53.875,19.215L48.692,24.397L55.065,24.397L60.247,19.215Z" style="fill-rule:nonzero;"/>
        <path d="M63.042,19.456L58.101,24.397L63.042,24.397L63.042,19.456Z" style="fill-rule:nonzero;"/>
        <path d="M17.751,49.898L17.751,46.922C17.751,42.96 11.7,42.871 11.7,46.922L11.7,49.898C11.7,51.305 12.676,52.519 14.03,52.83C15.85,53.302 17.751,51.901 17.751,49.898Z" style="fill-rule:nonzero;"/>
        <path d="M61.935,6.865L61.077,2L57.07,7.723L61.935,6.865Z" style="fill-rule:nonzero;"/>
        <path d="M54.079,8.25L58.283,2.246L52.008,3.352L47.804,9.356L54.079,8.25Z" style="fill-rule:nonzero;"/>
        <path d="M50.839,19.215L44.467,19.215L39.292,24.397L45.656,24.397L50.839,19.215Z" style="fill-rule:nonzero;"/>
        <path d="M61.977,60.83C61.865,60.735 61.752,60.641 61.619,60.57L56.465,58.134C56.039,58.388 55.572,58.576 55.086,58.687C54.45,58.857 53.586,58.866 52.875,58.68C52.412,58.574 51.953,58.388 51.53,58.134L46.319,60.595C45.679,60.941 45.251,61.657 45.251,62.44L45.251,66L62.737,66L62.737,62.439C62.737,61.908 62.528,61.418 62.186,61.035C62.106,60.976 62.038,60.909 61.977,60.83ZM55.067,64.323L52.92,64.323L52.92,62.781L55.067,62.781L55.067,64.323ZM55.067,61.19L52.92,61.19L52.92,59.647L55.067,59.647L55.067,61.19Z" style="fill-rule:nonzero;"/>
        <path d="M22.624,19.215L16.252,19.215L11.07,24.397L17.442,24.397L22.624,19.215Z" style="fill-rule:nonzero;"/>
        <path d="M57.019,49.898L57.019,46.922C57.019,45.25 55.666,43.892 53.998,43.892C52.327,43.892 50.968,45.251 50.968,46.922L50.968,49.898C50.968,51.305 51.944,52.519 53.299,52.83C53.78,52.955 54.254,52.947 54.663,52.839C56.107,52.505 57.019,51.268 57.019,49.898Z" style="fill-rule:nonzero;"/>
        <path d="M5.239,24.397L8.034,24.397L13.216,19.215L5.239,19.215L5.239,24.397Z" style="fill-rule:nonzero;"/>
        <path d="M52.786,54.915C52.677,54.89 52.569,54.852 52.461,54.819L52.461,56.162C52.738,56.361 53.049,56.517 53.387,56.595C53.81,56.705 54.219,56.697 54.573,56.603C54.942,56.518 55.257,56.361 55.535,56.16L55.535,54.819C55.416,54.855 55.298,54.895 55.177,54.923C54.83,55.015 54.422,55.066 53.998,55.066C53.574,55.066 53.166,55.015 52.786,54.915Z" style="fill-rule:nonzero;"/>
        <path d="M4.848,26.544L4.848,59.116L5.44,59.116C5.641,58.954 5.853,58.804 6.085,58.679L11.046,56.334L11.046,53.523C10.094,52.562 9.553,51.268 9.553,49.898L9.553,46.922C9.553,44.067 11.875,41.745 14.73,41.745C17.585,41.745 19.898,44.062 19.898,46.922L19.898,49.898C19.898,51.269 19.362,52.563 18.414,53.523L18.414,56.335L23.319,58.654C23.794,58.909 24.2,59.243 24.539,59.626C24.87,59.25 25.263,58.924 25.719,58.679L30.68,56.334L30.68,53.523C29.728,52.562 29.187,51.268 29.187,49.898L29.187,46.922C29.187,44.067 31.509,41.745 34.364,41.745C37.219,41.745 39.532,44.062 39.532,46.922L39.532,49.898C39.532,51.269 38.996,52.563 38.048,53.523L38.048,56.335L42.953,58.654C43.428,58.909 43.834,59.243 44.173,59.626C44.504,59.25 44.897,58.924 45.353,58.679L50.314,56.334L50.314,53.523C49.362,52.562 48.821,51.268 48.821,49.898L48.821,46.922C48.821,44.067 51.143,41.745 53.998,41.745C56.853,41.745 59.166,44.062 59.166,46.922L59.166,49.898C59.166,51.269 58.63,52.563 57.682,53.523L57.682,56.335L62.587,58.654C62.834,58.787 63.058,58.946 63.27,59.116L63.89,59.116L63.89,26.544L4.848,26.544Z" style="fill-rule:nonzero;"/>
        <path d="M41.985,60.57L36.83,58.134C36.405,58.388 35.938,58.576 35.452,58.687C34.816,58.857 33.951,58.866 33.241,58.68C32.779,58.574 32.32,58.388 31.896,58.134L26.685,60.595C26.045,60.941 25.617,61.657 25.617,62.44L25.617,66L43.104,66L43.104,62.44L43.104,62.439C43.104,61.657 42.675,60.94 41.985,60.57ZM35.433,64.323L33.286,64.323L33.286,62.781L35.433,62.781L35.433,64.323ZM35.433,61.19L33.286,61.19L33.286,59.647L35.433,59.647L35.433,61.19Z" style="fill-rule:nonzero;"/>
        <path d="M41.432,19.215L35.06,19.215L29.884,24.397L36.257,24.397L41.432,19.215Z" style="fill-rule:nonzero;"/>
        <path d="M32.827,54.819L32.827,56.161C33.104,56.361 33.415,56.517 33.753,56.595C34.518,56.794 35.285,56.605 35.901,56.16L35.901,54.819C35.421,54.966 35.025,55.066 34.364,55.066C33.737,55.066 33.322,54.97 32.827,54.819Z" style="fill-rule:nonzero;"/>
        <path d="M32.025,19.215L25.66,19.215L20.478,24.397L26.849,24.397L32.025,19.215Z" style="fill-rule:nonzero;"/>
        <path d="M13.193,54.819L13.193,56.161C13.797,56.598 14.587,56.792 15.305,56.603C15.674,56.518 15.989,56.361 16.267,56.16L16.267,54.819C15.788,54.966 15.392,55.066 14.73,55.066C14.103,55.066 13.688,54.97 13.193,54.819Z" style="fill-rule:nonzero;"/>
        <path d="M37.385,49.898L37.385,46.922C37.385,45.25 36.032,43.892 34.364,43.892C32.693,43.892 31.334,45.251 31.334,46.922L31.334,49.898C31.334,51.305 32.31,52.519 33.665,52.83C35.432,53.289 37.385,51.946 37.385,49.898Z" style="fill-rule:nonzero;"/>
    </g>
</svg>
