<?xml version="1.0" encoding="UTF-8" standalone="no"?>
<!DOCTYPE svg PUBLIC "-//W3C//DTD SVG 1.1//EN" "http://www.w3.org/Graphics/SVG/1.1/DTD/svg11.dtd">
<svg width="100%" height="100%" viewBox="0 0 100 101" version="1.1" xmlns="http://www.w3.org/2000/svg" xmlns:xlink="http://www.w3.org/1999/xlink" xml:space="preserve" xmlns:serif="http://www.serif.com/" style="fill-rule:evenodd;clip-rule:evenodd;stroke-linejoin:round;stroke-miterlimit:1.41421;">
    <g>
        <g>
            <circle cx="82.5" cy="43.8" r="13.2"/>
            <circle cx="16.1" cy="43.8" r="13.2"/>
            <path d="M37.3,50.3C39.9,49.2 42.9,50.4 44,53C44.9,55 44.3,57.2 42.9,58.6L45.8,65.5C47.1,65.2 48.5,65.4 49.8,66L61,71.8C61,71.8 73,63.7 74.2,62.8C75.4,62 76.9,61.1 77.8,60.8C81.8,59.5 92.1,58.6 94.9,65.3C97.3,70.9 97.5,83.7 97.4,95.3C97.4,96.2 96.6,97 95.7,97L72.7,97C71.8,97 71.1,96.3 71,95.4C70.7,90.8 70.4,85.4 70.4,82.1C70.4,81.4 70.4,80.6 70.4,79.8L64.7,83.7C63.7,84.4 62.5,84.7 61.3,84.7C60.4,84.7 59.4,84.5 58.6,84L44.6,77C41.9,75.6 40.4,72.5 41.3,69.7C41.6,68.8 42,68.1 42.6,67.5L39.5,60.2C37.5,60.3 35.5,59.1 34.6,57.1C33.5,54.4 34.7,51.4 37.3,50.3Z" style="fill-rule:nonzero;"/>
            <path d="M3,66.5C4,57.6 28.6,58 29.4,66.3C30.1,73.2 29.6,90.1 29.5,95.4C29.5,96.3 28.7,97 27.8,97L4.6,97C3.7,97 3,96.3 2.9,95.4C2.7,90.3 2.1,73.9 3,66.5Z" style="fill-rule:nonzero;"/>
            <path d="M29.7,18.6C29.7,23.5 32.9,27.9 37.9,30.8C37.4,32.2 36.5,34.1 34.6,36.3C33.4,37.7 34.8,39.8 36.6,39.1C40.2,37.8 44.3,35.9 48.2,34C49.4,34.1 50.5,34.2 51.8,34.2C63.9,34.2 73.7,27.2 73.7,18.5C73.6,10 63.7,3 51.6,3C39.5,3 29.7,10 29.7,18.6ZM59.1,18.6C59.1,16.7 60.6,15.2 62.5,15.2C64.4,15.2 65.9,16.7 65.9,18.6C65.9,20.5 64.4,22 62.5,22C60.6,22 59.1,20.5 59.1,18.6ZM48.2,18.6C48.2,16.7 49.7,15.2 51.6,15.2C53.5,15.2 55,16.7 55,18.6C55,20.5 53.5,22 51.6,22C49.8,22 48.2,20.5 48.2,18.6ZM37.4,18.6C37.4,16.7 38.9,15.2 40.8,15.2C42.7,15.2 44.2,16.7 44.2,18.6C44.2,20.5 42.7,22 40.8,22C38.9,22 37.4,20.5 37.4,18.6Z" style="fill-rule:nonzero;"/>
        </g>
    </g>
</svg>
