<?xml version="1.0" encoding="UTF-8" standalone="no"?>
<!DOCTYPE svg PUBLIC "-//W3C//DTD SVG 1.1//EN" "http://www.w3.org/Graphics/SVG/1.1/DTD/svg11.dtd">
<svg width="100%" height="100%" viewBox="0 0 145 141" version="1.1" xmlns="http://www.w3.org/2000/svg" xmlns:xlink="http://www.w3.org/1999/xlink" xml:space="preserve" xmlns:serif="http://www.serif.com/" style="fill-rule:evenodd;clip-rule:evenodd;stroke-linejoin:round;stroke-miterlimit:1.41421;">
    <path d="M131.213,109.174C131.209,109.109 131.217,109.045 131.209,108.98L121.209,29C121.076,27.932 120.381,27.017 119.385,26.603L104.928,20.585C104.514,20.371 104.045,20.25 103.547,20.25L40.53,20.25C40.012,20.25 39.525,20.382 39.1,20.615L25.628,26.633C24.682,27.056 24.021,27.937 23.88,28.963L12.88,108.943C12.872,109.004 12.879,109.064 12.874,109.125C12.868,109.201 12.852,109.274 12.852,109.353L12.852,117.503C12.852,119.16 14.195,120.503 15.852,120.503L29.376,120.503C31.033,120.503 32.376,119.16 32.376,117.503L32.376,109.625L38.683,84.337L42.3,71.247L42.804,84.199L37.578,120.322C37.431,121.343 37.816,122.367 38.6,123.035C39.386,123.704 40.461,123.923 41.441,123.615L72.529,113.898L102.627,123.607C102.928,123.704 103.238,123.752 103.547,123.752C104.246,123.752 104.934,123.508 105.483,123.044C106.274,122.376 106.665,121.347 106.516,120.322L101.291,84.221L101.795,71.272L105.383,84.264L111.707,109.617L111.707,117.503C111.707,119.16 113.049,120.503 114.707,120.503L128.23,120.503C129.888,120.503 131.23,119.16 131.23,117.503L131.23,109.353C131.231,109.291 131.217,109.233 131.213,109.174ZM26.376,114.502L18.852,114.502L18.852,112.352L26.376,112.352L26.376,114.502ZM68.611,30.047L65.191,46.875L56.337,26.249L65.885,26.249L68.725,30.047L68.611,30.047ZM76.475,30.047L76.36,30.047L79.2,26.249L88.307,26.249L79.828,46.554L76.475,30.047ZM95.565,62.169L85.815,62.169L85.815,56.169L95.565,56.169L95.565,62.169ZM125.231,114.502L117.708,114.502L117.708,112.352L125.231,112.352L125.231,114.502Z" style="fill-rule:nonzero;"/>
</svg>
