<?xml version="1.0" encoding="UTF-8" standalone="no"?>
<!DOCTYPE svg PUBLIC "-//W3C//DTD SVG 1.1//EN" "http://www.w3.org/Graphics/SVG/1.1/DTD/svg11.dtd">
<svg width="100%" height="100%" viewBox="0 0 100 80" version="1.1" xmlns="http://www.w3.org/2000/svg" xmlns:xlink="http://www.w3.org/1999/xlink" xml:space="preserve" xmlns:serif="http://www.serif.com/" style="fill-rule:evenodd;clip-rule:evenodd;stroke-linejoin:round;stroke-miterlimit:1.41421;">
    <g transform="matrix(1,0,0,1,0,-10)">
        <path d="M91.6,12.1L89.1,12.1L21,12.1L8.4,12.1C7.1,12.1 6,13.2 6,14.5L6,25.4C6,26.7 7.1,27.8 8.4,27.8L91.5,27.8C92.8,27.8 93.9,26.7 93.9,25.4L93.9,14.5C94,13.2 92.9,12.1 91.6,12.1ZM47.9,14.1L61,14.1L52.1,25.7L39,25.7L47.9,14.1ZM26.2,25.8L13,25.8L21.9,14.2L35.1,14.2L26.2,25.8ZM73,14.1L86.3,14.1L77.4,25.7L64.1,25.7L73,14.1Z" style="fill-rule:nonzero;"/>
    </g>
    <g transform="matrix(1,0,0,1,0,-10)">
        <path d="M91.6,30.2L8.4,30.2C7.1,30.2 6,31.3 6,32.6L6,85.6C6,86.9 7.1,88 8.4,88L91.6,88C92.9,88 94,86.9 94,85.6L94,32.6C94,31.2 92.9,30.2 91.6,30.2ZM73.4,42.7C77,42.7 80,45.7 80,49.3C80,52.9 77,55.9 73.4,55.9C69.8,55.9 66.8,52.9 66.8,49.3C66.8,45.7 69.8,42.7 73.4,42.7ZM50,39.2C54.5,39.2 58.1,42.8 58.1,47.3C58.1,51.8 54.5,55.4 50,55.4C45.5,55.4 41.9,51.8 41.9,47.3C41.9,42.8 45.5,39.2 50,39.2ZM26.5,42.7C30.1,42.7 33.1,45.7 33.1,49.3C33.1,52.9 30.1,55.9 26.5,55.9C22.9,55.9 19.9,52.9 19.9,49.3C19.9,45.7 22.9,42.7 26.5,42.7ZM35.6,74.9L17.5,74.9L17.5,65.9C17.5,60.9 21.5,56.9 26.5,56.9C31.5,56.9 35.5,60.9 35.6,65.9L35.6,74.9ZM61.1,78.9L38.9,78.9L38.9,67.8C38.9,61.7 43.9,56.7 50,56.7C56,56.7 61,61.7 61.1,67.8L61.1,78.9ZM82.5,74.9L64.4,74.9L64.4,65.9C64.4,60.9 68.4,56.9 73.4,56.9C78.4,56.9 82.4,60.9 82.5,65.9L82.5,74.9Z" style="fill-rule:nonzero;"/>
    </g>
</svg>
