<?xml version="1.0" encoding="UTF-8" standalone="no"?>
<!DOCTYPE svg PUBLIC "-//W3C//DTD SVG 1.1//EN" "http://www.w3.org/Graphics/SVG/1.1/DTD/svg11.dtd">
<svg width="100%" height="100%" viewBox="0 0 100 100" version="1.1" xmlns="http://www.w3.org/2000/svg" xmlns:xlink="http://www.w3.org/1999/xlink" xml:space="preserve" xmlns:serif="http://www.serif.com/" style="fill-rule:evenodd;clip-rule:evenodd;stroke-linejoin:round;stroke-miterlimit:1.41421;">
    <g>
        <path d="M91.156,0.003L28,0C25.369,0 23.791,1.582 23.791,4.213L23.791,7.414L78.525,7.415C81.159,7.415 82.735,8.992 82.735,11.626L82.735,86.316L91.157,86.316C93.791,86.316 95.369,84.739 95.369,82.103L95.369,4.213C95.368,1.582 93.79,0.003 91.156,0.003Z" style="fill-rule:nonzero;"/>
        <path d="M72.21,13.686L9.052,13.684C6.421,13.684 4.843,15.263 4.843,17.896L4.843,95.788C4.843,98.42 6.421,100 9.052,100L72.21,100C74.843,100 76.421,98.42 76.421,95.788L76.421,17.896C76.421,15.264 74.843,13.686 72.21,13.686ZM59.578,79.052L21.685,79.052L21.685,72.736L59.579,72.736L59.579,79.052L59.578,79.052ZM59.578,60.104L21.685,60.104L21.685,53.79L59.579,53.79L59.579,60.104L59.578,60.104ZM59.578,41.158L21.685,41.158L21.685,34.842L59.579,34.842L59.579,41.158L59.578,41.158Z" style="fill-rule:nonzero;"/>
    </g>
</svg>
