<?xml version="1.0" encoding="UTF-8" standalone="no"?>
<!DOCTYPE svg PUBLIC "-//W3C//DTD SVG 1.1//EN" "http://www.w3.org/Graphics/SVG/1.1/DTD/svg11.dtd">
<svg width="100%" height="100%" viewBox="0 0 318 273" version="1.1" xmlns="http://www.w3.org/2000/svg" xmlns:xlink="http://www.w3.org/1999/xlink" xml:space="preserve" xmlns:serif="http://www.serif.com/" style="fill-rule:evenodd;clip-rule:evenodd;stroke-linejoin:round;stroke-miterlimit:1.41421;">
    <g>
        <path d="M117,0C159,0 194,34 194,77C194,119 159,154 117,154C74,154 40,119 40,77C40,34 74,0 117,0ZM83,93L94,92C95,101 99,107 105,110L105,77C95,73 87,67 87,53C87,40 95,32 105,29L105,18L113,18L113,27C115,27 117,27 119,28L119,18L127,18L127,29C138,33 147,41 147,56L137,56C136,49 132,44 127,41L127,71C139,74 150,80 150,96C150,111 140,120 127,124L127,135L119,135L119,125C117,125 115,125 113,124L113,136L105,136L105,123C94,119 84,109 83,93ZM113,113C115,114 117,114 119,114L119,81C117,80 115,80 113,79L113,113ZM113,38L113,67C115,68 117,68 119,68L119,38C117,38 115,38 113,38ZM105,64L105,41C101,43 97,47 97,53C97,59 100,62 105,64ZM127,112C134,110 139,105 139,97C139,90 134,86 127,83L127,112Z"/>
        <path d="M318,107L318,189C311,191 292,182 277,188C254,197 224,263 185,265C162,265 61,250 24,242C-20,233 4,204 39,210C28,187 60,189 74,190C87,170 97,175 144,179C126,187 85,197 98,223C106,237 127,237 142,232L196,211C207,206 225,186 227,176C214,184 208,193 191,200L138,221C130,224 114,227 110,218C105,207 120,201 130,198C199,171 174,151 218,117C236,102 317,104 318,107Z"/>
    </g>
</svg>
