<?xml version="1.0" encoding="UTF-8" standalone="no"?>
<!DOCTYPE svg PUBLIC "-//W3C//DTD SVG 1.1//EN" "http://www.w3.org/Graphics/SVG/1.1/DTD/svg11.dtd">
<svg width="100%" height="100%" viewBox="0 0 516 488" version="1.1" xmlns="http://www.w3.org/2000/svg" xmlns:xlink="http://www.w3.org/1999/xlink" xml:space="preserve" xmlns:serif="http://www.serif.com/" style="fill-rule:evenodd;clip-rule:evenodd;stroke-linejoin:round;stroke-miterlimit:1.41421;">
    <g>
        <path d="M0,444L107,289L161,269L246,389L269,389L355,269L409,289L516,444L367,408L258,480L149,408L0,444Z"/>
        <path d="M258,0C374,2 419,133 383,187L258,370L133,187C96,133 141,2 258,0ZM258,75C292,75 319,102 319,136C319,169 292,197 258,197C224,197 197,169 197,136C197,102 224,75 258,75Z"/>
    </g>
</svg>
