<?xml version="1.0" encoding="UTF-8" standalone="no"?>
<!DOCTYPE svg PUBLIC "-//W3C//DTD SVG 1.1//EN" "http://www.w3.org/Graphics/SVG/1.1/DTD/svg11.dtd">
<svg width="100%" height="100%" viewBox="0 0 100 99" version="1.1" xmlns="http://www.w3.org/2000/svg" xmlns:xlink="http://www.w3.org/1999/xlink" xml:space="preserve" xmlns:serif="http://www.serif.com/" style="fill-rule:evenodd;clip-rule:evenodd;stroke-linejoin:round;stroke-miterlimit:1.41421;">
    <path d="M13.26,10L13.26,90L28.26,90L28.26,60L36,60L36,54.19L37.24,54.19C37.775,54.185 38.296,54.014 38.73,53.7L43,50.54C45,55.16 44.64,57.4 43.8,60.71C43.706,61.134 43.656,61.566 43.65,62L37.65,62C36.22,62.003 34.982,63.027 34.71,64.43L31.6,80.43C31.557,80.633 31.536,80.84 31.536,81.048C31.536,82.493 32.579,83.742 34,84C34.191,84.039 34.385,84.059 34.58,84.06C36.01,84.057 37.248,83.033 37.52,81.63L40.17,68L40.53,68L40.53,90L62.8,90L62.8,67.73L51.56,67.73C52.392,67.353 53.007,66.616 53.23,65.73C53.834,65.069 54.264,64.269 54.48,63.4C56,57.3 56.13,52.2 52.19,44.18C51.27,42.299 49.352,41.101 47.258,41.101C44.815,41.101 42.652,42.732 41.98,45.08L36.44,49.19L28.26,49.19C26.889,49.19 25.76,50.319 25.76,51.69C25.761,52.443 26.108,53.155 26.7,53.62L18.26,53.62L18.26,10L13.26,10Z" style="fill-rule:nonzero;"/>
    <path d="M81.19,33.11C81.231,32.814 81.252,32.516 81.252,32.218C81.252,28.657 78.322,25.728 74.762,25.728C73.58,25.728 72.421,26.05 71.41,26.66L63.49,29.59L55.11,26C54.796,25.864 54.457,25.793 54.114,25.793C53.119,25.793 52.215,26.387 51.82,27.3C51.771,27.417 51.731,27.537 51.7,27.66C50.38,27.54 49.54,28.82 49.26,29.34C49.019,28.993 48.666,28.739 48.26,28.62C47.512,28.422 46.716,28.705 46.26,29.33C45.246,28.643 44.048,28.276 42.823,28.276C39.461,28.276 36.693,31.043 36.693,34.406C36.693,37.769 39.461,40.536 42.823,40.536C46.186,40.536 48.953,37.769 48.953,34.406C48.953,34.271 48.949,34.135 48.94,34C48.892,33.359 48.747,32.728 48.51,32.13C49.019,31.899 49.403,31.457 49.56,30.92C49.594,30.779 49.614,30.635 49.62,30.49C50.7,30.23 50.41,31.72 50.41,31.72C50.17,34.01 50.81,34.97 51.62,35.32C51.662,36.136 52.099,36.883 52.79,37.32L60.58,42.16C61.303,42.611 62.209,42.664 62.98,42.3L67.44,40.17C67.34,42.08 67.32,43.81 67.37,45.52L65.45,74.12C65.45,75.05 66.2,75.8 67.45,76.38L66.73,86.58C66.725,86.652 66.722,86.725 66.722,86.798C66.722,88.363 67.948,89.679 69.51,89.79L69.72,89.79C71.289,89.794 72.61,88.566 72.72,87L73.38,77.69C74.631,77.783 75.886,77.807 77.14,77.76L78.14,87.1C78.299,88.627 79.605,89.798 81.14,89.79L81.45,89.79C83.058,89.559 84.201,88.062 84,86.45L83,76.79C84.88,76.18 86.12,75.28 86.12,74.08L80.85,52.69C80.23,45.24 80,41.93 81.19,33.11ZM62.06,37.11L55.43,33C54.715,32.558 53.822,32.505 53.06,32.86C53.06,32.12 53.15,31.31 53.17,30.53L62.42,34.53C62.735,34.668 63.076,34.74 63.42,34.74C63.717,34.736 64.011,34.682 64.29,34.58L68.07,33.18C68.07,33.57 67.98,33.94 67.94,34.31L62.06,37.11Z" style="fill-rule:nonzero;"/>
    <path d="M83.37,10.15C80.94,9.49 79.53,11.82 79.09,12.72C78.688,12.217 78.127,11.865 77.5,11.72C77.115,11.635 76.715,11.635 76.33,11.72C75.091,10.805 73.591,10.311 72.051,10.311C68.102,10.311 64.851,13.561 64.851,17.511C64.851,21.461 68.102,24.711 72.051,24.711C76.001,24.711 79.251,21.461 79.251,17.511C79.251,17.464 79.251,17.417 79.25,17.37C79.236,16.994 79.196,16.62 79.13,16.25C79.358,15.953 79.525,15.613 79.62,15.25C79.668,15.027 79.691,14.799 79.69,14.57C81.34,14 81,16.3 81,16.3C80.44,24.44 86.79,21.3 86.79,21.3C83.08,20.87 87,11.15 83.37,10.15Z" style="fill-rule:nonzero;"/>
</svg>
