<?xml version="1.0" encoding="UTF-8" standalone="no"?>
<!DOCTYPE svg PUBLIC "-//W3C//DTD SVG 1.1//EN" "http://www.w3.org/Graphics/SVG/1.1/DTD/svg11.dtd">
<svg width="100%" height="100%" viewBox="0 0 100 103" version="1.1" xmlns="http://www.w3.org/2000/svg" xmlns:xlink="http://www.w3.org/1999/xlink" xml:space="preserve" xmlns:serif="http://www.serif.com/" style="fill-rule:evenodd;clip-rule:evenodd;stroke-linejoin:round;stroke-miterlimit:1.41421;">
    <path d="M90,79.63C89.761,84.891 85.367,89.09 80.1,89.09C74.664,89.09 70.19,84.616 70.19,79.18C70.19,73.744 74.664,69.27 80.1,69.27C85.656,69.4 90.122,74.074 90,79.63ZM87.11,79.63C86.93,75.922 83.83,72.97 80.118,72.97C76.278,72.97 73.118,76.13 73.118,79.97C73.118,83.807 76.273,86.965 80.11,86.97C84.032,86.856 87.173,83.553 87.09,79.63L87.11,79.63ZM84.22,80.49L84.22,81.79C84.226,82.253 83.853,82.639 83.39,82.65L78,82.65C77.537,82.639 77.164,82.253 77.17,81.79L77.17,75.31C77.164,74.847 77.537,74.461 78,74.45L79.24,74.45C79.703,74.461 80.076,74.847 80.07,75.31L80.07,79.63L83.37,79.63C83.833,79.641 84.206,80.027 84.2,80.49L84.22,80.49Z" style="fill:rgb(1,1,1);fill-rule:nonzero;"/>
    <path d="M81.63,42.67L68.14,34.88L68.14,39.55L13.14,39.55L13.14,45.8L68.14,45.8L68.14,50.47L81.63,42.67Z" style="fill:rgb(1,1,1);fill-rule:nonzero;"/>
    <path d="M60.54,58.95L47.05,51.16L47.05,55.83L13.14,55.83L13.14,62.08L47.05,62.08L47.05,66.74L60.54,58.95Z" style="fill:rgb(1,1,1);fill-rule:nonzero;"/>
    <path d="M39.97,75.23L26.47,67.44L26.47,72.1L13.14,72.1L13.14,78.35L26.47,78.35L26.47,83.02L39.97,75.23Z" style="fill:rgb(1,1,1);fill-rule:nonzero;"/>
    <path d="M93.49,12.76L80.08,12.76L80.08,5.82C80.08,2.962 77.728,0.61 74.87,0.61L66.8,0.61C63.942,0.61 61.59,2.962 61.59,5.82L61.59,12.76L38.41,12.76L38.41,5.82C38.41,2.962 36.058,0.61 33.2,0.61L25.13,0.61C22.272,0.61 19.92,2.962 19.92,5.82L19.92,12.76L6.51,12.76C2.943,12.771 0.011,15.703 0,19.27L0,92.88C0.011,96.447 2.943,99.379 6.51,99.39L93.51,99.39C97.07,99.368 99.989,96.44 100,92.88L100,19.27C99.989,15.703 97.057,12.771 93.49,12.76ZM67.71,6.21L74,6.21L74,22.21L67.71,22.21L67.71,6.21ZM26,6.21L32.25,6.21L32.25,22.21L26,22.21L26,6.21ZM92.27,92.21L7.69,92.21L7.69,31.34L92.31,31.34L92.27,92.21Z" style="fill:rgb(1,1,1);fill-rule:nonzero;"/>
</svg>
