<?xml version="1.0" encoding="UTF-8" standalone="no"?>
<!DOCTYPE svg PUBLIC "-//W3C//DTD SVG 1.1//EN" "http://www.w3.org/Graphics/SVG/1.1/DTD/svg11.dtd">
<svg width="100%" height="100%" viewBox="0 0 100 104" version="1.1" xmlns="http://www.w3.org/2000/svg" xmlns:xlink="http://www.w3.org/1999/xlink" xml:space="preserve" xmlns:serif="http://www.serif.com/" style="fill-rule:evenodd;clip-rule:evenodd;stroke-linejoin:round;stroke-miterlimit:1.41421;">
    <path d="M57.986,20.811C56.642,19.466 54.873,18.627 52.982,18.435L32.226,16.331C31.182,16.229 30.129,16.327 29.122,16.62C29.26,17.159 29.389,17.694 29.494,18.219C30.027,20.515 31.085,22.656 32.586,24.474C36.835,24.592 40.266,28.119 40.266,32.37C40.266,36.703 36.701,40.269 32.367,40.269C28.034,40.269 24.469,36.703 24.469,32.37C24.469,30.782 24.948,29.231 25.843,27.919C27.019,29.577 28.338,31.13 29.784,32.559C30.138,32.908 30.615,33.104 31.112,33.104C32.15,33.104 33.004,32.25 33.004,31.212C33.004,30.715 32.808,30.237 32.459,29.884C28.772,26.196 26.62,22.618 25.883,18.946C25.292,16.069 24.291,13.291 22.912,10.697C21.34,7.62 18.346,5.509 14.92,5.06C12.16,4.699 9.393,5.722 7.532,7.791C3.547,12.282 4.343,19.057 9.384,23.548C10.702,24.681 12.132,25.677 13.652,26.519C14.173,25.36 14.876,24.292 15.735,23.355C14.368,22.615 13.083,21.733 11.9,20.724C8.98,18.122 7.448,13.585 10.362,10.301C11.416,9.164 12.961,8.61 14.497,8.82C16.698,9.14 18.606,10.524 19.595,12.516C20.793,14.772 21.661,17.189 22.174,19.691C22.306,20.334 22.471,20.969 22.669,21.594L18.707,25.557C16.954,27.309 16.081,29.761 16.331,32.227L18.435,52.982C18.627,54.873 19.466,56.642 20.811,57.986L56.793,93.968C57.453,94.629 58.349,95 59.283,95C60.217,95 61.113,94.629 61.773,93.968L93.968,61.774C94.628,61.113 95,60.217 95,59.283C95,58.35 94.629,57.453 93.968,56.793L57.986,20.811Z" style="fill-rule:nonzero;"/>
</svg>
