<?xml version="1.0" encoding="UTF-8" standalone="no"?>
<!DOCTYPE svg PUBLIC "-//W3C//DTD SVG 1.1//EN" "http://www.w3.org/Graphics/SVG/1.1/DTD/svg11.dtd">
<svg width="100%" height="100%" viewBox="0 0 100 101" version="1.1" xmlns="http://www.w3.org/2000/svg" xmlns:xlink="http://www.w3.org/1999/xlink" xml:space="preserve" xmlns:serif="http://www.serif.com/" style="fill-rule:evenodd;clip-rule:evenodd;stroke-linejoin:round;stroke-miterlimit:1.41421;">
    <g>
        <path d="M33.2,45.2C27.6,44.7 23.1,40 23.1,34.2C23.1,28.1 28,23.2 34.1,23.2C39.8,23.2 44.6,27.6 45.1,33.3C45.7,33.2 46.4,33.1 47,33.1C49.1,33.1 51.2,33.8 52.9,35.1C53.3,32.3 54.9,29.9 57.1,28.4C56.6,28.2 56.1,27.8 55.9,27.2C55.5,26 55.1,24.9 54.5,23.8C54.2,23.1 54.2,22.4 54.7,21.8L58.6,17C59.3,16.1 59.3,14.7 58.4,13.9L54.4,9.9C53.6,9.1 52.2,9 51.3,9.7L46.5,13.6C45.9,14.1 45.1,14.1 44.5,13.8C43.4,13.2 42.3,12.8 41.1,12.4C40.6,12 40,11.4 40,10.7L39.3,4.6C39.2,3.4 38.2,2.6 37,2.6L31.3,2.6C30.1,2.6 29.1,3.5 29,4.6L28.3,10.7C28.2,11.4 27.7,12 27,12.2C25.8,12.6 24.7,13 23.6,13.6C22.9,13.9 22.2,13.9 21.6,13.4L16.9,9.5C16,8.7 14.6,8.8 13.8,9.7L9.8,13.7C9,14.5 8.9,15.9 9.6,16.8L13.5,21.6C14,22.1 14,22.9 13.7,23.6C13.2,24.7 12.7,25.8 12.3,27C12.1,27.7 11.5,28.2 10.8,28.3L4.5,29C3.3,29.1 2.5,30.1 2.5,31.3L2.5,37C2.5,38.2 3.4,39.2 4.5,39.3L10.7,40C11.4,40.1 12,40.6 12.2,41.3C12.6,42.5 13,43.6 13.6,44.7C13.9,45.4 13.9,46.1 13.4,46.7L9.5,51.5C8.7,52.4 8.8,53.7 9.7,54.6L13.7,58.6C14.5,59.4 15.9,59.5 16.8,58.8L21.6,54.9C22.1,54.4 22.9,54.4 23.6,54.7C24.7,55.3 25.8,55.7 27,56.1C27.6,56.3 28,56.7 28.2,57.3C29.7,55.1 32.1,53.5 34.9,53.1C33.2,50.7 32.7,47.9 33.2,45.2Z" style="fill-rule:nonzero;"/>
        <path d="M95.4,60.7L89.3,60C88.6,59.9 88,59.4 87.8,58.7C87.4,57.5 86.9,56.4 86.4,55.3C86.1,54.6 86.1,53.9 86.6,53.3L90.5,48.5C91.2,47.6 91.2,46.2 90.3,45.4L86.3,41.4C85.5,40.6 84.1,40.5 83.2,41.2L78.4,45.1C77.8,45.6 77.1,45.6 76.4,45.3C75.3,44.7 74.2,44.3 73,43.9C72.3,43.7 71.8,43.1 71.7,42.4L71,36.2C70.9,35 69.9,34.1 68.7,34.1L63,34.1C61.8,34.1 60.8,35 60.7,36.2L60,42.4C59.9,43.1 59.4,43.7 58.7,43.9C57.5,44.3 56.4,44.8 55.3,45.3C54.6,45.6 53.9,45.6 53.3,45.1L48.5,41.2C47.6,40.5 46.2,40.5 45.4,41.4L41.4,45.4C40.6,46.2 40.5,47.6 41.2,48.5L45.1,53.3C45.6,53.9 45.6,54.6 45.3,55.3C44.7,56.4 44.3,57.5 43.9,58.7C43.7,59.4 43.1,59.9 42.4,60L36.3,60.7C35.1,60.8 34.2,61.8 34.2,63L34.2,68.7C34.2,69.9 35.1,70.9 36.3,71L42.4,71.7C43.1,71.8 43.7,72.3 43.9,73C44.3,74.2 44.8,75.3 45.3,76.4C45.6,77.1 45.6,77.8 45.1,78.4L41.2,83.2C40.5,84.1 40.5,85.5 41.4,86.3L45.4,90.3C46.2,91.1 47.6,91.2 48.5,90.5L53.3,86.6C53.9,86.1 54.6,86.1 55.3,86.4C56.4,87 57.5,87.4 58.7,87.8C59.4,88 59.9,88.6 60,89.3L60.7,95.4C60.8,96.6 61.8,97.5 63,97.5L68.7,97.5C69.9,97.5 70.9,96.6 71,95.4L71.7,89.3C71.8,88.6 72.3,88 73,87.8C74.2,87.4 75.3,86.9 76.4,86.4C77.1,86.1 77.8,86.1 78.4,86.6L83.2,90.5C84.1,91.2 85.5,91.2 86.3,90.3L90.3,86.3C91.1,85.5 91.2,84.1 90.5,83.2L86.6,78.4C86.1,77.8 86.1,77.1 86.4,76.4C87,75.3 87.4,74.2 87.8,73C88,72.3 88.6,71.8 89.3,71.7L95.4,71C96.6,70.9 97.5,69.9 97.5,68.7L97.5,63C97.5,61.8 96.6,60.8 95.4,60.7ZM65.8,76.9C59.7,76.9 54.8,72 54.8,65.9C54.8,59.8 59.7,54.9 65.8,54.9C71.9,54.9 76.8,59.8 76.8,65.9C76.9,71.9 71.9,76.9 65.8,76.9Z" style="fill-rule:nonzero;"/>
    </g>
</svg>
