<?xml version="1.0" encoding="UTF-8" standalone="no"?>
<!DOCTYPE svg PUBLIC "-//W3C//DTD SVG 1.1//EN" "http://www.w3.org/Graphics/SVG/1.1/DTD/svg11.dtd">
<svg width="100%" height="100%" viewBox="0 0 73 103" version="1.1" xmlns="http://www.w3.org/2000/svg" xmlns:xlink="http://www.w3.org/1999/xlink" xml:space="preserve" xmlns:serif="http://www.serif.com/" style="fill-rule:evenodd;clip-rule:evenodd;stroke-linejoin:round;stroke-miterlimit:1.41421;">
    <g transform="matrix(1,0,0,1,-1441,-7274)">
        <path d="M1513.99,7292.14C1514,7292.21 1514,7292.29 1514,7292.36L1514,7372C1514,7373.25 1512.99,7374.26 1511.74,7374.26L1443.41,7374.26C1442.16,7374.26 1441.15,7373.25 1441.15,7372L1441.15,7276.53C1441.15,7275.28 1442.16,7274.26 1443.41,7274.26L1495.9,7274.26C1495.98,7274.26 1496.05,7274.27 1496.13,7274.27C1496.18,7274.28 1496.24,7274.29 1496.29,7274.3C1496.31,7274.3 1496.33,7274.3 1496.35,7274.31C1496.41,7274.32 1496.47,7274.34 1496.54,7274.36C1496.55,7274.36 1496.55,7274.36 1496.56,7274.36C1496.62,7274.38 1496.69,7274.4 1496.75,7274.43C1496.75,7274.43 1496.76,7274.43 1496.77,7274.44C1496.83,7274.46 1496.88,7274.49 1496.94,7274.52C1496.95,7274.52 1496.96,7274.53 1496.97,7274.53C1497.02,7274.56 1497.07,7274.59 1497.11,7274.62C1497.13,7274.63 1497.14,7274.64 1497.16,7274.65C1497.2,7274.67 1497.24,7274.7 1497.28,7274.74C1497.3,7274.75 1497.32,7274.76 1497.34,7274.78C1497.38,7274.81 1497.42,7274.85 1497.46,7274.89C1497.47,7274.9 1497.49,7274.91 1497.5,7274.93L1513.34,7290.76C1513.35,7290.78 1513.36,7290.79 1513.38,7290.81C1513.41,7290.85 1513.45,7290.88 1513.49,7290.93C1513.5,7290.94 1513.51,7290.96 1513.53,7290.98C1513.56,7291.02 1513.59,7291.06 1513.62,7291.1C1513.63,7291.12 1513.64,7291.14 1513.65,7291.15C1513.68,7291.2 1513.71,7291.24 1513.73,7291.3C1513.74,7291.31 1513.74,7291.32 1513.75,7291.33C1513.78,7291.38 1513.8,7291.44 1513.83,7291.49C1513.83,7291.5 1513.83,7291.51 1513.84,7291.52C1513.86,7291.58 1513.88,7291.64 1513.9,7291.7C1513.9,7291.71 1513.9,7291.72 1513.91,7291.73C1513.93,7291.79 1513.94,7291.85 1513.96,7291.92C1513.96,7291.94 1513.96,7291.95 1513.96,7291.97C1513.97,7292.03 1513.98,7292.08 1513.99,7292.14ZM1498.16,7281.99L1498.16,7290.1L1506.28,7290.1L1498.16,7281.99ZM1445.67,7369.74L1509.48,7369.74L1509.48,7294.63L1495.9,7294.63C1494.65,7294.63 1493.64,7293.61 1493.64,7292.36L1493.64,7278.79L1445.67,7278.79L1445.67,7369.74ZM1488.6,7351.24C1490.03,7351.24 1491.15,7352.36 1491.15,7353.79C1491.15,7355.22 1490.03,7356.24 1488.6,7356.24L1458.6,7356.24C1457.17,7356.24 1456.15,7355.22 1456.15,7353.79C1456.15,7352.36 1457.17,7351.24 1458.6,7351.24L1488.6,7351.24ZM1458.6,7332.26C1457.17,7332.26 1456.15,7331.14 1456.15,7329.71C1456.15,7328.28 1457.17,7327.26 1458.6,7327.26L1498.6,7327.26C1500.03,7327.26 1501.15,7328.28 1501.15,7329.71C1501.15,7331.14 1500.03,7332.26 1498.6,7332.26L1458.6,7332.26ZM1458.6,7344.2C1457.17,7344.2 1456.15,7343.18 1456.15,7341.75C1456.15,7340.32 1457.17,7339.2 1458.6,7339.2L1498.6,7339.2C1500.03,7339.2 1501.15,7340.32 1501.15,7341.75C1501.15,7343.18 1500.03,7344.2 1498.6,7344.2L1458.6,7344.2ZM1458.87,7305.11C1459.15,7304.72 1459.57,7304.46 1460.04,7304.38L1491.42,7299.29C1491.51,7299.27 1491.61,7299.26 1491.7,7299.26C1492.59,7299.26 1493.34,7299.9 1493.48,7300.77L1494.43,7306.62L1494.32,7306.64L1464.14,7311.54L1494.85,7311.54L1494.85,7317.47C1494.85,7318.46 1494.05,7319.26 1493.05,7319.26L1461.26,7319.26C1460.27,7319.26 1459.47,7318.46 1459.47,7317.47L1459.47,7312.08L1458.55,7306.44C1458.47,7305.97 1458.59,7305.49 1458.87,7305.11ZM1492.95,7313.44L1488.42,7313.44L1490.44,7317.36L1492.95,7317.36L1492.95,7313.44ZM1483.99,7313.44L1478.19,7313.44L1480.22,7317.36L1485.84,7317.36L1483.99,7313.44ZM1473.77,7313.44L1468.26,7313.44L1470.28,7317.36L1475.62,7317.36L1473.77,7313.44ZM1461.37,7317.36L1465.68,7317.36L1463.83,7313.44L1461.37,7313.44L1461.37,7317.36ZM1488.52,7301.69L1487.49,7305.82L1492.24,7305.05L1491.62,7301.18L1488.52,7301.69ZM1478.87,7303.25L1477.85,7307.39L1483.01,7306.55L1484.21,7302.39L1478.87,7303.25ZM1469.66,7304.75L1468.64,7308.88L1473.38,7308.11L1474.58,7303.95L1469.66,7304.75ZM1465.4,7305.44L1460.45,7306.24L1461.08,7310.11L1464.21,7309.6L1465.4,7305.44Z" style="fill-rule:nonzero;"/>
    </g>
</svg>
