<?xml version="1.0" encoding="UTF-8" standalone="no"?>
<!DOCTYPE svg PUBLIC "-//W3C//DTD SVG 1.1//EN" "http://www.w3.org/Graphics/SVG/1.1/DTD/svg11.dtd">
<svg width="100%" height="100%" viewBox="0 0 100 100" version="1.1" xmlns="http://www.w3.org/2000/svg" xmlns:xlink="http://www.w3.org/1999/xlink" xml:space="preserve" xmlns:serif="http://www.serif.com/" style="fill-rule:evenodd;clip-rule:evenodd;stroke-linejoin:round;stroke-miterlimit:1.41421;">
    <path d="M11.766,74.351L11.766,29.922L74.351,29.922L74.351,41.06C76.667,41.364 78.938,41.944 81.117,42.786L81.117,17.588C81.117,14.858 78.871,12.612 76.141,12.612L68.431,12.612L68.431,8.565C68.468,6.734 67.063,5.167 65.238,5.005C65.178,5.002 65.117,5 65.057,5C63.206,5 61.683,6.523 61.683,8.374L61.683,12.612L24.434,12.612L24.434,8.565C24.471,6.734 23.066,5.167 21.241,5.005C21.181,5.002 21.121,5 21.06,5C19.209,5 17.686,6.523 17.686,8.374L17.686,12.612L9.976,12.612C7.246,12.612 5,14.858 5,17.588L5,76.141C5,78.871 7.246,81.117 9.976,81.117L42.786,81.117C41.944,78.938 41.364,76.667 41.059,74.351L11.766,74.351ZM61.683,16.933L61.683,18.132C61.683,19.983 63.206,21.506 65.057,21.506C66.908,21.506 68.431,19.983 68.431,18.132L68.431,16.933C69.77,17.974 70.554,19.578 70.554,21.273C70.554,24.289 68.072,26.771 65.057,26.771C62.041,26.771 59.559,24.289 59.559,21.273C59.559,19.578 60.344,17.974 61.683,16.933ZM17.686,16.933L17.686,18.132C17.686,19.983 19.209,21.506 21.06,21.506C22.911,21.506 24.434,19.983 24.434,18.132L24.434,16.933C25.773,17.974 26.557,19.578 26.557,21.273C26.557,24.289 24.076,26.771 21.06,26.771C18.044,26.771 15.563,24.289 15.563,21.273C15.563,19.578 16.347,17.974 17.686,16.933ZM70.454,45.909C56.989,45.909 45.909,56.989 45.909,70.455C45.909,83.92 56.989,95 70.454,95C83.92,95 95,83.92 95,70.455C95,56.989 83.92,45.909 70.454,45.909ZM82.046,65.617L71.968,72.295C70.935,72.98 69.549,72.842 68.672,71.965L58.417,61.72L57.089,60.392C56.648,59.953 56.401,59.355 56.401,58.733C56.401,57.446 57.459,56.388 58.746,56.388C59.367,56.388 59.963,56.634 60.402,57.073L61.731,58.397L70.782,67.438L79.449,61.698C79.834,61.443 80.286,61.307 80.747,61.307C82.037,61.307 83.098,62.368 83.098,63.657C83.098,64.445 82.702,65.182 82.046,65.617Z" style="fill-rule:nonzero;"/>
</svg>
