<?xml version="1.0" encoding="UTF-8" standalone="no"?>
<!DOCTYPE svg PUBLIC "-//W3C//DTD SVG 1.1//EN" "http://www.w3.org/Graphics/SVG/1.1/DTD/svg11.dtd">
<svg width="100%" height="100%" viewBox="0 0 100 87" version="1.1" xmlns="http://www.w3.org/2000/svg" xmlns:xlink="http://www.w3.org/1999/xlink" xml:space="preserve" xmlns:serif="http://www.serif.com/" style="fill-rule:evenodd;clip-rule:evenodd;stroke-linejoin:round;stroke-miterlimit:1.41421;">
    <g transform="matrix(1,0,0,1,0,-5)">
        <path d="M60.528,47.033L58.345,47.033L14.658,47.033L8.105,47.033L8.105,81.982L60.528,81.982L60.528,47.033Z" style="fill-rule:nonzero;"/>
    </g>
    <g transform="matrix(1,0,0,1,0,-5)">
        <path d="M36.937,25.199C36.937,16.513 29.898,9.465 21.211,9.465C12.525,9.465 5.478,16.513 5.478,25.199C5.478,33.885 12.526,40.924 21.211,40.924C29.897,40.924 36.937,33.885 36.937,25.199M21.211,35.677C15.427,35.677 10.725,30.984 10.725,25.199C10.725,19.414 15.427,14.713 21.211,14.713C26.996,14.713 31.69,19.415 31.69,25.199C31.689,30.984 26.996,35.677 21.211,35.677" style="fill-rule:nonzero;"/>
    </g>
    <g transform="matrix(1,0,0,1,0,-5)">
        <path d="M71.886,25.199C71.886,16.513 64.846,9.465 56.16,9.465C47.474,9.465 40.427,16.513 40.427,25.199C40.427,33.885 47.475,40.924 56.16,40.924C64.845,40.924 71.886,33.885 71.886,25.199M56.16,35.677C50.375,35.677 45.674,30.984 45.674,25.199C45.674,19.414 50.375,14.713 56.16,14.713C61.945,14.713 66.638,19.415 66.638,25.199C66.638,30.984 61.945,35.677 56.16,35.677" style="fill-rule:nonzero;"/>
    </g>
    <g transform="matrix(1,0,0,1,0,-5)">
        <path d="M69.266,60.139L69.266,68.876L95.478,88.535L95.478,40.48L69.266,60.139Z" style="fill-rule:nonzero;"/>
    </g>
</svg>
