<?xml version="1.0" encoding="UTF-8" standalone="no"?>
<!DOCTYPE svg PUBLIC "-//W3C//DTD SVG 1.1//EN" "http://www.w3.org/Graphics/SVG/1.1/DTD/svg11.dtd">
<svg width="100%" height="100%" viewBox="0 0 93 78" version="1.1" xmlns="http://www.w3.org/2000/svg" xmlns:xlink="http://www.w3.org/1999/xlink" xml:space="preserve" xmlns:serif="http://www.serif.com/" style="fill-rule:evenodd;clip-rule:evenodd;stroke-linejoin:round;stroke-miterlimit:1.41421;">
    <g transform="matrix(1,0,0,1,-7,-11)">
        <path d="M18.88,83.93L69.77,83.93C71.62,83.93 73.12,82.43 73.12,80.58L73.12,52.23L90.92,31L80.62,22.36L73.11,31.31L73.11,19.42C73.11,17.57 71.61,16.07 69.76,16.07L18.88,16.07C17.03,16.07 15.53,17.57 15.53,19.42L15.53,80.58C15.53,82.43 17.03,83.93 18.88,83.93ZM18.53,19.42C18.53,19.23 18.69,19.07 18.88,19.07L69.77,19.07C69.96,19.07 70.12,19.23 70.12,19.42L70.12,34.89L64.22,41.92L47.2,41.92C46.37,41.92 45.7,42.59 45.7,43.42L45.7,56.14C45.7,56.97 46.37,57.64 47.2,57.64L52.93,57.64C52.5,58.39 52.65,59.37 53.34,59.95C53.8,60.34 53.86,61.02 53.47,61.48L52,63.22C51.61,63.68 51.67,64.37 52.13,64.76L54.11,66.42C54.57,66.81 55.26,66.75 55.65,66.29L57.11,64.55C57.5,64.09 58.18,64.03 58.64,64.42C59.41,65.07 60.57,64.97 61.21,64.19L63,62.06C63.27,61.73 63.76,61.69 64.09,61.96C64.42,62.23 64.9,62.19 65.18,61.86L67.44,59.16C67.83,58.7 67.77,58.02 67.31,57.63L58.49,50.23C58.03,49.84 57.35,49.9 56.96,50.36L54.7,53.06C54.43,53.39 54.47,53.87 54.8,54.15C54.95,54.28 55.03,54.45 55.06,54.63L48.7,54.63L48.7,44.91L61.7,44.91L59.18,47.91L69.48,56.55L70.12,55.79L70.12,80.57C70.12,80.76 69.96,80.92 69.77,80.92L18.88,80.92C18.69,80.92 18.53,80.76 18.53,80.57L18.53,19.42Z" style="fill-rule:nonzero;"/>
    </g>
    <g transform="matrix(1,0,0,1,-7,-11)">
        <path d="M94.15,27.16C94.88,26.29 94.77,24.99 93.9,24.26L86.76,18.26C85.89,17.53 84.59,17.64 83.86,18.51L82.06,20.66L92.36,29.3L94.15,27.16Z" style="fill-rule:nonzero;"/>
    </g>
    <g transform="matrix(1,0,0,1,-7,-11)">
        <path d="M51.8,69.48L53.15,67.87L50.88,65.96L49.53,67.57C49,68.2 49.09,69.13 49.71,69.66C50.34,70.19 51.27,70.11 51.8,69.48Z" style="fill-rule:nonzero;"/>
    </g>
    <g transform="matrix(1,0,0,1,-7,-11)">
        <path d="M23.98,76.9L41.36,76.9C42.19,76.9 42.86,76.23 42.86,75.4L42.86,62.67C42.86,61.84 42.19,61.17 41.36,61.17L23.98,61.17C23.15,61.17 22.48,61.84 22.48,62.67L22.48,75.4C22.48,76.22 23.15,76.9 23.98,76.9ZM25.48,64.17L39.86,64.17L39.86,73.89L25.48,73.89L25.48,64.17Z" style="fill-rule:nonzero;"/>
    </g>
    <g transform="matrix(1,0,0,1,-7,-11)">
        <path d="M23.98,57.64L41.36,57.64C42.19,57.64 42.86,56.97 42.86,56.14L42.86,43.42C42.86,42.59 42.19,41.92 41.36,41.92L23.98,41.92C23.15,41.92 22.48,42.59 22.48,43.42L22.48,56.14C22.48,56.97 23.15,57.64 23.98,57.64ZM25.48,44.92L39.86,44.92L39.86,54.64L25.48,54.64L25.48,44.92Z" style="fill-rule:nonzero;"/>
    </g>
    <g transform="matrix(1,0,0,1,-7,-11)">
        <path d="M23.98,38.93L41.36,38.93C42.19,38.93 42.86,38.26 42.86,37.43L42.86,24.71C42.86,23.88 42.19,23.21 41.36,23.21L23.98,23.21C23.15,23.21 22.48,23.88 22.48,24.71L22.48,37.43C22.48,38.26 23.15,38.93 23.98,38.93ZM25.48,26.21L39.86,26.21L39.86,35.93L25.48,35.93L25.48,26.21Z" style="fill-rule:nonzero;"/>
    </g>
    <g transform="matrix(1,0,0,1,-7,-11)">
        <path d="M47.2,38.93L64.58,38.93C65.41,38.93 66.08,38.26 66.08,37.43L66.08,24.71C66.08,23.88 65.41,23.21 64.58,23.21L47.2,23.21C46.37,23.21 45.7,23.88 45.7,24.71L45.7,37.43C45.7,38.26 46.37,38.93 47.2,38.93ZM48.7,26.21L63.08,26.21L63.08,35.93L48.7,35.93L48.7,26.21Z" style="fill-rule:nonzero;"/>
    </g>
</svg>
