<?xml version="1.0" encoding="UTF-8" standalone="no"?>
<!DOCTYPE svg PUBLIC "-//W3C//DTD SVG 1.1//EN" "http://www.w3.org/Graphics/SVG/1.1/DTD/svg11.dtd">
<svg width="100%" height="100%" viewBox="0 0 66 67" version="1.1" xmlns="http://www.w3.org/2000/svg" xmlns:xlink="http://www.w3.org/1999/xlink" xml:space="preserve" xmlns:serif="http://www.serif.com/" style="fill-rule:evenodd;clip-rule:evenodd;stroke-linejoin:round;stroke-miterlimit:1.41421;">
    <g>
        <path d="M4,12.5L8.2,13.8L9.5,18C9.6,18.4 10,18.7 10.5,18.7C11,18.7 11.3,18.4 11.4,18L12.7,13.8L16.9,12.5C17.3,12.4 17.6,12 17.6,11.6C17.6,11.2 17.3,10.8 16.9,10.6L12.7,9.3L11.4,5.1C11.3,4.7 10.9,4.4 10.5,4.4C10.1,4.4 9.7,4.7 9.5,5.1L8.1,9.3L4,10.6C3.6,10.7 3.3,11.1 3.3,11.6C3.3,12 3.5,12.4 4,12.5Z" style="fill-rule:nonzero;"/>
        <path d="M64,50.9L59.8,49.6L58.5,45.4C58.4,45 58,44.7 57.5,44.7C57.1,44.7 56.7,45 56.6,45.4L55.3,49.6L51.1,50.9C50.7,51 50.4,51.4 50.4,51.9C50.4,52.3 50.7,52.7 51.1,52.9L55.3,54.2L56.6,58.4C56.7,58.8 57.1,59.1 57.5,59.1C57.9,59.1 58.3,58.8 58.5,58.4L59.8,54.2L64,52.9C64.4,52.8 64.7,52.4 64.7,51.9C64.7,51.4 64.4,51 64,50.9Z" style="fill-rule:nonzero;"/>
        <path d="M51.2,14.8L55.4,16.1L56.7,20.3C56.8,20.7 57.2,21 57.6,21C58,21 58.4,20.7 58.6,20.3L59.9,16.1L64.1,14.8C64.5,14.7 64.8,14.3 64.8,13.8C64.8,13.4 64.5,13 64.1,12.8L59.9,11.5L58.6,7.3C58.5,6.9 58.1,6.6 57.6,6.6C57.2,6.6 56.8,6.9 56.7,7.3L55.4,11.5L51.2,12.8C50.8,12.9 50.5,13.3 50.5,13.8C50.4,14.3 50.7,14.7 51.2,14.8Z" style="fill-rule:nonzero;"/>
        <path d="M14.8,45.9L10.6,44.6L9.3,40.4C9.2,40 8.8,39.7 8.3,39.7C7.9,39.7 7.5,40 7.3,40.4L6,44.6L2,45.9C1.6,46 1.3,46.4 1.3,46.9C1.3,47.3 1.6,47.7 2,47.9L6.2,49.2L7.5,53.4C7.6,53.8 8,54.1 8.5,54.1C8.9,54.1 9.3,53.8 9.5,53.4L10.8,49.2L15,47.9C15.4,47.8 15.7,47.4 15.7,46.9C15.5,46.4 15.3,46 14.8,45.9Z" style="fill-rule:nonzero;"/>
        <path d="M17.6,41.5L17.6,58.2C17.6,58.5 17.8,58.9 18.1,59C23.5,62.3 28.8,63.9 33.9,63.9C39.1,63.9 44.1,62.2 49,58.9C49.3,58.7 49.4,58.4 49.4,58.1L49.4,41.5C45,43.2 39.5,44.1 33.5,44.1C27.5,44.1 22,43.2 17.6,41.5Z" style="fill-rule:nonzero;"/>
        <path d="M23.3,25.8C19.7,27.1 17.5,29.1 17.5,31.2C17.5,32.5 18.4,33.8 20.1,35C20.5,34.4 21.1,33.8 21.7,33.4C21.7,30.9 22.1,28 23.3,25.8Z" style="fill-rule:nonzero;"/>
        <path d="M27.1,23.7C27.1,24.2 26.8,24.4 26.7,24.6C22.4,29.3 24.7,34.5 23.1,35C22.7,35.1 22.2,35.5 21.9,36C28.2,39.1 38.6,39.1 45,36.1C44,34.6 42.9,35.2 43,34C43,30.5 42.8,27.4 40.1,24.5C38.9,23.3 40.5,23.3 41.4,19.7L41.4,19.6C42.1,16.5 42,12.9 42.2,11.3C41.8,5.2 40.1,2 39.3,2C39,2 38.7,2.4 38.5,2.6C36.5,5.5 35.7,15 37.6,20.8C37.9,21.6 37,22.4 36.3,22.1C34.2,21.3 32.3,21.3 30.1,22.2C29.3,22.5 28.5,21.8 28.8,20.9C30.8,15.2 30,5.5 28,2.6C27.9,2.4 27.5,2 27.2,2C26.8,2 26.3,2.6 25.8,3.6C24.3,7.1 23.7,15.2 25.9,21.7C26.5,22.9 27.1,23.3 27.1,23.7ZM38.3,28.3L38.7,28.3C39.2,28.3 39.7,28.7 39.7,29.3C39.7,29.9 39.2,30.3 38.7,30.3L38.3,30.3C37.7,30.3 37.3,29.9 37.3,29.3C37.3,28.7 37.7,28.3 38.3,28.3ZM30,33C30.3,32.6 31,32.5 31.4,32.9C31.5,33 33.7,34.7 36.3,32.9C36.8,32.6 37.4,32.7 37.7,33.2C38,33.6 37.9,34.3 37.4,34.6C36.1,35.5 34.9,35.8 33.7,35.8C32,35.8 30.7,35.1 30,34.5C29.7,34 29.6,33.4 30,33ZM27.8,28.3L28.2,28.3C28.7,28.3 29.2,28.7 29.2,29.3C29.2,29.9 28.7,30.3 28.2,30.3L27.8,30.3C27.2,30.3 26.8,29.9 26.8,29.3C26.8,28.7 27.3,28.3 27.8,28.3Z" style="fill-rule:nonzero;"/>
        <path d="M44.9,33.4C45.5,33.8 46.2,34.4 46.7,35.1C48.5,33.9 49.5,32.5 49.5,31.1C49.5,29 47,26.8 43.2,25.5C44.2,27.6 44.9,29.4 44.9,33.4Z" style="fill-rule:nonzero;"/>
        <path d="M9.4,31.2C9.4,37.1 20.4,42.2 33.5,42.2C46.5,42.2 57.6,37.2 57.6,31.2C57.6,26.9 51.7,22.9 42.9,21.1C42.7,21.8 42.4,22.4 42.1,23C42.1,23 42,23.1 42,23.2C47.9,24.8 51.5,27.8 51.5,31.2C51.5,32.4 51.1,33.5 50.3,34.6C49.5,35.7 48.3,36.6 46.8,37.5C39.6,41.4 26.9,41.3 20,37.3C17.1,35.7 15.6,33.5 15.6,31.3C15.6,27.9 19,25 24.6,23.4C24.3,22.8 24,22.1 23.7,21.4C15.1,23 9.4,26.9 9.4,31.2Z" style="fill-rule:nonzero;"/>
    </g>
</svg>
