<?xml version="1.0" encoding="UTF-8" standalone="no"?>
<!DOCTYPE svg PUBLIC "-//W3C//DTD SVG 1.1//EN" "http://www.w3.org/Graphics/SVG/1.1/DTD/svg11.dtd">
<svg width="100%" height="100%" viewBox="0 0 52 52" version="1.1" xmlns="http://www.w3.org/2000/svg" xmlns:xlink="http://www.w3.org/1999/xlink" xml:space="preserve" xmlns:serif="http://www.serif.com/" style="fill-rule:evenodd;clip-rule:evenodd;stroke-linejoin:round;stroke-miterlimit:1.41421;">
    <path d="M23.93,34.27C23.246,34.422 22.754,35.034 22.754,35.735C22.754,35.844 22.766,35.953 22.79,36.06C22.93,36.695 23,37.343 23,37.992C23,42.93 18.937,46.992 14,46.992C9.063,46.992 5,42.93 5,37.992C5,33.055 9.063,28.992 14,28.992C15.184,28.992 16.356,29.226 17.45,29.68C17.641,29.764 17.848,29.808 18.056,29.808C18.879,29.808 19.556,29.131 19.556,28.308C19.556,27.691 19.175,27.134 18.6,26.91C17.141,26.309 15.578,25.999 14,26C7.417,26 2,31.417 2,38C2.003,44.581 7.419,49.995 14,49.995C17.411,49.995 20.665,48.541 22.94,46C23.654,45.2 24.26,44.309 24.74,43.35C24.946,42.938 25.127,42.514 25.28,42.08C25.761,40.774 26.005,39.392 26,38C26.002,37.129 25.909,36.26 25.72,35.41C25.568,34.726 24.956,34.234 24.255,34.234C24.146,34.234 24.037,34.246 23.93,34.27Z" style="fill-rule:nonzero;"/>
    <path d="M26.55,26.93C25.968,26.349 25.012,26.349 24.43,26.93L13.77,37.84L11.59,35.54C11.308,35.254 10.923,35.093 10.522,35.093C9.699,35.093 9.022,35.77 9.022,36.593C9.022,36.965 9.16,37.324 9.41,37.6L12.67,41C12.946,41.298 13.334,41.468 13.74,41.47C14.142,41.469 14.528,41.306 14.81,41.02L26.55,29.02C27.112,28.442 27.112,27.508 26.55,26.93Z" style="fill-rule:nonzero;"/>
    <path d="M17.57,12L18.43,12C19.951,11.868 21.103,10.523 21,9L21,5C21.103,3.477 19.951,2.132 18.43,2L17.57,2C16.049,2.132 14.897,3.477 15,5L15,9C14.897,10.523 16.049,11.868 17.57,12Z" style="fill-rule:nonzero;"/>
    <path d="M37.57,12L38.43,12C39.951,11.868 41.103,10.523 41,9L41,5C41.103,3.477 39.951,2.132 38.43,2L37.57,2C36.049,2.132 34.897,3.477 35,5L35,9C34.897,10.523 36.049,11.868 37.57,12Z" style="fill-rule:nonzero;"/>
    <path d="M46,6L43,6C42.726,6 42.5,6.226 42.5,6.5L42.5,9C42.5,11.194 40.694,13 38.5,13L37.5,13C35.306,13 33.5,11.194 33.5,9L33.5,6.5C33.5,6.226 33.274,6 33,6L23,6C22.726,6 22.5,6.226 22.5,6.5L22.5,9C22.5,11.194 20.694,13 18.5,13L17.5,13C15.306,13 13.5,11.194 13.5,9L13.5,6.5C13.5,6.226 13.274,6 13,6L10,6C7.806,6 6,7.806 6,10L6,26.52C6.63,26.071 7.3,25.679 8,25.35L8,18.5C8,18.226 8.226,18 8.5,18L47.5,18C47.774,18 48,18.226 48,18.5L48,40C48,41.097 47.097,42 46,42L27.41,42C27.209,42.685 26.955,43.354 26.65,44L46,44C48.194,44 50,42.194 50,40L50,10C50,7.806 48.194,6 46,6Z" style="fill-rule:nonzero;"/>
</svg>
