<?xml version="1.0" encoding="UTF-8" standalone="no"?>
<!DOCTYPE svg PUBLIC "-//W3C//DTD SVG 1.1//EN" "http://www.w3.org/Graphics/SVG/1.1/DTD/svg11.dtd">
<svg width="100%" height="100%" viewBox="0 0 100 101" version="1.1" xmlns="http://www.w3.org/2000/svg" xmlns:xlink="http://www.w3.org/1999/xlink" xml:space="preserve" xmlns:serif="http://www.serif.com/" style="fill-rule:evenodd;clip-rule:evenodd;stroke-linejoin:round;stroke-miterlimit:1.41421;">
    <g transform="matrix(1,0,0,1,0,-952.362)">
        <path d="M20,957.362C11.741,957.362 5,964.101 5,972.362L5,1032.36C5,1040.62 11.741,1047.36 20,1047.36L80,1047.36C88.259,1047.36 95,1040.62 95,1032.36L95,972.362C95,964.101 88.259,957.362 80,957.362L20,957.362ZM20,963.362L80,963.362C85.036,963.362 89,967.318 89,972.362L89,1032.36C89,1037.41 85.036,1041.36 80,1041.36L20,1041.36C14.964,1041.36 11,1037.41 11,1032.36L11,972.362C11,967.318 14.964,963.362 20,963.362L20,963.362ZM79,965.393C74.617,965.393 71,969.011 71,973.393C71,977.776 74.617,981.393 79,981.393C83.383,981.393 87,977.776 87,973.393C87,969.011 83.383,965.393 79,965.393ZM50,974.393C34.572,974.393 22,986.965 22,1002.39C22,1017.82 34.572,1030.36 50,1030.36C65.428,1030.36 78,1017.82 78,1002.39C78,986.965 65.428,974.393 50,974.393ZM50,980.362C62.186,980.362 72,990.208 72,1002.39C72,1014.58 62.186,1024.39 50,1024.39C37.814,1024.39 28,1014.58 28,1002.39C28,990.208 37.814,980.362 50,980.362ZM50,989.393C42.856,989.393 37,995.249 37,1002.39C37,1009.54 42.856,1015.39 50,1015.39C57.144,1015.39 63,1009.54 63,1002.39C63,995.249 57.144,989.393 50,989.393Z" style="fill-rule:nonzero;"/>
    </g>
</svg>
