<?xml version="1.0" encoding="UTF-8" standalone="no"?>
<!DOCTYPE svg PUBLIC "-//W3C//DTD SVG 1.1//EN" "http://www.w3.org/Graphics/SVG/1.1/DTD/svg11.dtd">
<svg width="100%" height="100%" viewBox="0 0 276 245" version="1.1" xmlns="http://www.w3.org/2000/svg" xmlns:xlink="http://www.w3.org/1999/xlink" xml:space="preserve" xmlns:serif="http://www.serif.com/" style="fill-rule:evenodd;clip-rule:evenodd;stroke-linejoin:round;stroke-miterlimit:1.41421;">
    <g transform="matrix(1,0,0,1,-30,-47)">
        <path d="M227,127C231,128 236,130 240,132L257,115L280,139L263,156C266,160 267,164 269,168L293,168L293,202L269,202C267,206 266,211 263,215L280,232L257,255L240,238C236,240 231,242 227,244L227,268L193,268L193,244C189,242 185,240 181,238L164,255L140,232L157,215C155,211 153,206 152,202L128,202L128,168L152,168C153,164 155,160 157,156L140,139L164,115L181,132C185,130 189,128 193,127L193,103L227,103L227,127ZM113,58C129,66 139,82 139,101C139,122 126,139 108,146L113,255C115,282 65,282 66,255L72,146C54,139 41,122 41,101C41,82 51,66 66,58L66,90L90,110L113,90L113,70L113,58ZM210,145C232,145 250,163 250,185C250,207 232,225 210,225C188,225 170,207 170,185C170,163 188,145 210,145ZM210,158C225,158 237,170 237,185C237,200 225,212 210,212C195,212 183,200 183,185C183,170 195,158 210,158ZM210,136C237,136 259,158 259,185C259,212 237,234 210,234C183,234 161,212 161,185C161,158 183,136 210,136Z"/>
    </g>
</svg>
