<?xml version="1.0" encoding="UTF-8" standalone="no"?>
<!DOCTYPE svg PUBLIC "-//W3C//DTD SVG 1.1//EN" "http://www.w3.org/Graphics/SVG/1.1/DTD/svg11.dtd">
<svg width="100%" height="100%" viewBox="0 0 9 9" version="1.1" xmlns="http://www.w3.org/2000/svg" xmlns:xlink="http://www.w3.org/1999/xlink" xml:space="preserve" xmlns:serif="http://www.serif.com/" style="fill-rule:evenodd;clip-rule:evenodd;stroke-linejoin:round;stroke-miterlimit:1.41421;">
    <path d="M0.264,0C0.119,0.001 0.001,0.119 0,0.264L0,3.545C0.001,3.689 0.119,3.808 0.264,3.809L3.543,3.809C3.688,3.809 3.808,3.69 3.809,3.545L3.809,0.264C3.808,0.118 3.688,-0.001 3.543,0L0.264,0ZM4.922,0C4.778,0 4.659,0.119 4.658,0.264L4.658,3.545C4.659,3.69 4.778,3.808 4.922,3.809L8.201,3.809C8.346,3.809 8.466,3.69 8.467,3.545L8.467,0.264C8.466,0.118 8.346,-0.001 8.201,0L4.922,0ZM0.529,0.529L3.279,0.529L3.279,3.279L0.529,3.279L0.529,0.529ZM5.188,0.529L7.938,0.529L7.938,3.279L5.188,3.279L5.188,0.529ZM0.264,4.658C0.119,4.659 0.001,4.777 0,4.922L0,8.201C-0.001,8.346 0.118,8.466 0.264,8.467L3.543,8.467C3.543,8.467 3.544,8.467 3.544,8.467C3.689,8.467 3.809,8.347 3.809,8.202C3.809,8.202 3.809,8.201 3.809,8.201L3.809,4.922C3.808,4.777 3.688,4.658 3.543,4.658L0.264,4.658ZM4.922,4.658C4.778,4.658 4.659,4.777 4.658,4.922L4.658,8.201C4.658,8.201 4.658,8.202 4.658,8.202C4.658,8.347 4.777,8.466 4.922,8.467L8.201,8.467C8.201,8.467 8.202,8.467 8.202,8.467C8.347,8.467 8.467,8.347 8.467,8.202C8.467,8.202 8.467,8.201 8.467,8.201L8.467,4.922C8.466,4.777 8.346,4.658 8.201,4.658L4.922,4.658ZM0.529,5.187L3.279,5.187L3.279,7.937L0.529,7.937L0.529,5.187ZM5.188,5.187L7.938,5.187L7.938,7.937L5.188,7.937L5.188,5.187Z" style="fill-rule:nonzero;"/>
</svg>
