<?xml version="1.0" encoding="UTF-8" standalone="no"?>
<!DOCTYPE svg PUBLIC "-//W3C//DTD SVG 1.1//EN" "http://www.w3.org/Graphics/SVG/1.1/DTD/svg11.dtd">
<svg width="100%" height="100%" viewBox="0 0 28 29" version="1.1" xmlns="http://www.w3.org/2000/svg" xmlns:xlink="http://www.w3.org/1999/xlink" xml:space="preserve" xmlns:serif="http://www.serif.com/" style="fill-rule:evenodd;clip-rule:evenodd;stroke-linejoin:round;stroke-miterlimit:1.41421;">
    <path d="M2.53,10.242C2.006,8.147 2,5.128 2,5C2.001,2.749 3.689,0.826 5.921,0.533C7.822,0.29 10.768,0 14.001,0C17.231,0 20.177,0.29 22.079,0.533C24.311,0.826 25.999,2.749 26,5C26,5.128 25.994,8.147 25.47,10.242L23.53,9.758C23.994,7.898 24,5.028 24,5C24.001,3.75 23.065,2.681 21.825,2.517C19.23,2.183 16.617,2.01 14,2C10.873,2 8.018,2.281 6.175,2.517C4.935,2.681 3.999,3.75 4,5C4,5.028 4.007,7.903 4.47,9.758L2.53,10.242ZM7,7L9,7L9,5L7,5L7,7ZM10,12L12,12L12,10L10,10L10,12ZM16,12L18,12L18,10L16,10L16,12ZM19,7L21,7L21,5L19,5L19,7ZM13,7L15,7L15,5L13,5L13,7ZM24.418,20.481C23.688,21.684 23,22.821 23,24.001L23,26.001L20.72,26.001L19.72,23.001L8.28,23.001L7.28,26.001L5,26.001L5,24.001C5,22.821 4.311,21.684 3.582,20.481C2.803,19.198 2,17.872 2,16.501C2,15.12 3.121,14 4.5,14C5.88,14 7,15.12 7,16.5L7,20L9,20L9,17.747C10.017,17.469 12.022,16.999 14,16.999C15.977,16.999 17.982,17.469 19,17.747L19,20L21,20L21,16.5C21,15.121 22.121,14 23.5,14C24.88,14 26,15.121 26,16.5C26,17.872 25.196,19.198 24.418,20.481ZM23.5,12.001C21.336,12.005 19.467,13.57 19.081,15.699C17.878,15.392 15.951,15 14.001,15C12.049,15 10.122,15.392 8.919,15.7C8.534,13.57 6.664,12.004 4.5,12C2.032,12.002 0.002,14.032 0,16.5C0,18.43 0.994,20.071 1.871,21.518C2.452,22.475 3.001,23.381 3.001,24L3.001,28L8.721,28L9.721,25L18.279,25L19.279,28L25,28L25,24C25,23.381 25.548,22.475 26.13,21.518C27.005,20.071 28,18.43 28,16.5C28,14.018 25.981,12 23.5,12L23.5,12.001Z"/>
</svg>
