<?xml version="1.0" encoding="UTF-8" standalone="no"?>
<!DOCTYPE svg PUBLIC "-//W3C//DTD SVG 1.1//EN" "http://www.w3.org/Graphics/SVG/1.1/DTD/svg11.dtd">
<svg width="100%" height="100%" viewBox="0 0 24 24" version="1.1" xmlns="http://www.w3.org/2000/svg" xmlns:xlink="http://www.w3.org/1999/xlink" xml:space="preserve" xmlns:serif="http://www.serif.com/" style="fill-rule:evenodd;clip-rule:evenodd;stroke-linejoin:round;stroke-miterlimit:1.41421;">
    <path d="M12,16C14.761,16 17,13.761 17,11L17,7C17,4.239 14.761,2 12,2C9.239,2 7,4.239 7,7L7,11C7,13.761 9.239,16 12,16ZM9,7C9,5.346 10.346,4 12,4C13.654,4 15,5.346 15,7L15,11C15,12.654 13.654,14 12,14C10.346,14 9,12.654 9,11L9,7Z" style="fill-rule:nonzero;"/>
    <path d="M11,19.941L11,22L13,22L13,19.941C17.493,19.441 21,15.624 21,11L21,9L19,9L19,11C19,14.86 15.86,18 12,18C8.14,18 5,14.86 5,11L5,9L3,9L3,11C3,15.624 6.507,19.441 11,19.941Z" style="fill-rule:nonzero;"/>
</svg>
