<?xml version="1.0" encoding="UTF-8" standalone="no"?>
<!DOCTYPE svg PUBLIC "-//W3C//DTD SVG 1.1//EN" "http://www.w3.org/Graphics/SVG/1.1/DTD/svg11.dtd">
<svg width="100%" height="100%" viewBox="0 0 66 68" version="1.1" xmlns="http://www.w3.org/2000/svg" xmlns:xlink="http://www.w3.org/1999/xlink" xml:space="preserve" xmlns:serif="http://www.serif.com/" style="fill-rule:evenodd;clip-rule:evenodd;stroke-linejoin:round;stroke-miterlimit:1.41421;">
    <g>
        <path d="M53.9,14.2L54.8,11.3L57.7,10.4L54.8,9.5L53.9,6.5L53,9.5L50,10.4L53,11.3L53.9,14.2Z" style="fill-rule:nonzero;"/>
        <path d="M62.8,12.9L62.2,11.1L61.7,12.9L59.9,13.4L61.7,13.9L62.2,15.7L62.8,13.9L64.5,13.4L62.8,12.9Z" style="fill-rule:nonzero;"/>
        <path d="M61,8.3L61.8,5.8L64.3,5L61.8,4.3L61,1.7L60.3,4.3L57.7,5L60.3,5.8L61,8.3Z" style="fill-rule:nonzero;"/>
        <path d="M61.6,17.5L56.2,16.1C55.9,16 55.7,16.1 55.4,16.2C55.2,16.3 55,16.6 54.9,16.8C54.9,17 52.7,25.3 52.9,24.9L44.9,2.2C44.7,1.7 44.1,1.4 43.6,1.6L2.2,16C1.7,16.2 1.4,16.8 1.6,17.3L17.1,61.9C17.2,62.3 17.6,62.6 18,62.6C18.1,62.6 18.2,62.6 18.3,62.5L45.8,52.9C43.5,62.2 43.3,62 43.6,62.6C43.7,62.8 44,63 44.2,63.1L49.6,64.5C50.1,64.6 50.7,64.3 50.8,63.8L54.3,50L59.7,48.1C60.2,47.9 60.5,47.3 60.3,46.8L57.3,38.1C59.2,30.7 60.4,25.8 62.2,18.8C62.4,18.2 62.1,17.7 61.6,17.5ZM18.6,60.2L3.8,17.6L43.4,3.8L52,28.5L51.2,31.6C50.9,31.3 50.6,31.2 50.2,31.4L46.3,32.7C46,32.8 45.8,33 45.7,33.2C45.6,33.4 45.6,33.7 45.7,34L47,37.6C47.2,38.1 47.8,38.4 48.3,38.2L49.7,37.7L47.8,45.1L42.6,30.1C42.4,29.6 41.8,29.3 41.3,29.5L21.4,36.4C20.9,36.6 20.6,37.2 20.8,37.7L26.4,53.7C26.6,54.2 27.2,54.5 27.7,54.3L47.3,47.5L46.5,50.5L18.6,60.2ZM50.4,34.9L50.3,35.4L48.5,36L47.9,34.3L49.9,33.6L50.4,34.9ZM38.1,43.1L32.4,45.1C30.6,45.7 29.6,47.7 30.3,49.5L30.8,51.1L27.9,52.1L23,38L41,31.7L45.9,45.8L43,46.8L42.5,45.2C41.9,43.5 39.9,42.5 38.1,43.1ZM41.2,47.5L32.7,50.5L32.2,48.9C31.9,48.1 32.3,47.3 33.1,47C39,45 38.9,44.9 39.3,44.9C39.9,44.9 40.5,45.3 40.7,45.9L41.2,47.5ZM58.2,46.4L55,47.6L56.5,41.6L58.2,46.4ZM49.2,62.3L45.7,61.4L48.2,51.6C53.9,29.2 43.7,69.3 55,24.9L58.5,25.8C53.9,43.6 51.8,52 49.2,62.3ZM58.9,23.8L55.4,22.9L56.6,18.3L60.1,19.2L58.9,23.8Z" style="fill-rule:nonzero;"/>
        <path d="M19.4,33.9C19.6,34.4 20.2,34.7 20.7,34.5C20.6,34.5 30.3,31.2 40.6,27.6C40.9,27.5 41.1,27.3 41.2,27.1C41.3,26.9 41.3,26.6 41.2,26.3L35.6,10.3C35.4,9.8 34.8,9.5 34.3,9.7L14.4,16.6C13.9,16.8 13.6,17.3 13.8,17.9L19.4,33.9ZM25.7,30.6L25.2,29C24.9,28.2 25.3,27.4 26.1,27.1C32,25.1 31.9,25 32.3,25C32.9,25 33.5,25.4 33.7,26L34.2,27.6L25.7,30.6ZM34.1,11.9L39,26L36.1,27L35.6,25.4C35,23.6 33,22.6 31.2,23.3L25.5,25.3C23.7,25.9 22.7,27.9 23.4,29.7L23.9,31.3L21,32.3L16.1,18.2L34.1,11.9Z" style="fill-rule:nonzero;"/>
        <path d="M38.4,13.2C38.6,13.7 39.2,14 39.7,13.8L43.6,12.5C43.9,12.4 44.1,12.2 44.2,12C44.3,11.8 44.3,11.5 44.2,11.2L42.9,7.6C42.8,7 42.2,6.8 41.7,7L37.8,8.3C37.3,8.5 37,9.1 37.2,9.6L38.4,13.2ZM41.4,9.2L42,10.9L40,11.6L39.4,9.9L41.4,9.2Z" style="fill-rule:nonzero;"/>
        <path d="M40,17.7L41.3,21.3C41.5,21.8 42.1,22.1 42.6,21.9L46.5,20.6C47,20.4 47.3,19.8 47.1,19.3L45.8,15.7C45.7,15.4 45.5,15.2 45.3,15.1C45.1,15 44.8,15 44.5,15.1L40.6,16.4C40.1,16.6 39.8,17.2 40,17.7ZM44.2,17.3L44.8,19L42.8,19.7L42.2,18L44.2,17.3Z" style="fill-rule:nonzero;"/>
        <path d="M42.9,25.1C42.8,25.3 42.8,25.6 42.9,25.9L44.2,29.5C44.4,30 45,30.3 45.5,30.1L49.4,28.8C49.9,28.6 50.2,28 50,27.5C48.7,24.1 48.9,23.6 48.2,23.3C48,23.2 47.7,23.2 47.4,23.3L43.5,24.6C43.2,24.7 43,24.9 42.9,25.1ZM47,25.5L47.6,27.2L45.6,27.9L45,26.2L47,25.5Z" style="fill-rule:nonzero;"/>
        <path d="M13.6,23.1L12.4,19.6C12.2,19.1 11.6,18.8 11.1,19L7.4,20.3C7.1,20.4 6.9,20.6 6.8,20.8C6.7,21 6.7,21.3 6.8,21.6L8,25.1C8.2,25.6 8.8,25.9 9.3,25.7L13,24.4C13.6,24.2 13.8,23.6 13.6,23.1ZM9.6,23.5L9,21.9L10.9,21.3L11.5,22.9L9.6,23.5Z" style="fill-rule:nonzero;"/>
        <path d="M16.4,31L15.2,27.5C15.1,27.2 14.9,27 14.7,26.9C14.5,26.8 14.2,26.8 13.9,26.9L10.2,28.2C9.7,28.4 9.4,29 9.6,29.5L10.8,33C11,33.5 11.6,33.8 12.1,33.6L15.8,32.3C16.3,32.1 16.6,31.5 16.4,31ZM12.3,31.3L11.7,29.7L13.6,29.1L14.2,30.7L12.3,31.3Z" style="fill-rule:nonzero;"/>
        <path d="M19.1,38.9L17.9,35.4C17.8,35.1 17.6,34.9 17.4,34.8C17.2,34.7 16.9,34.7 16.6,34.8L12.9,36.1C12.4,36.3 12.1,36.9 12.3,37.4L13.5,40.9C13.7,41.4 14.3,41.7 14.8,41.5L18.5,40.2C19,40 19.3,39.4 19.1,38.9ZM15.1,39.2L14.5,37.6L16.4,37L17,38.6L15.1,39.2Z" style="fill-rule:nonzero;"/>
        <path d="M21.9,46.8L20.7,43.3C20.5,42.8 19.9,42.5 19.4,42.7L15.6,44C15.3,44.1 15.1,44.3 15,44.5C14.9,44.7 14.9,45 15,45.3L16.2,48.8C16.4,49.3 17,49.6 17.5,49.4L21.2,48.1C21.8,47.8 22.1,47.3 21.9,46.8ZM17.8,47.1L17.2,45.5L19.1,44.9L19.7,46.5L17.8,47.1Z" style="fill-rule:nonzero;"/>
        <path d="M23.4,51.2C23.3,50.9 23.1,50.7 22.9,50.6C22.7,50.5 22.4,50.5 22.1,50.6L18.4,51.9C17.9,52.1 17.6,52.7 17.8,53.2L19,56.7C19.2,57.2 19.8,57.5 20.3,57.3L24,56C24.5,55.8 24.8,55.2 24.6,54.7L23.4,51.2ZM20.6,55L20,53.4L21.9,52.8L22.5,54.4L20.6,55Z" style="fill-rule:nonzero;"/>
        <path d="M30,37.8C28.7,40.4 30.6,43.5 33.6,43.5C36.3,43.5 38.3,40.8 37.4,38.2C36.2,34.9 31.6,34.6 30,37.8ZM31.7,40.2C30.8,37.7 34.6,36.4 35.5,38.9C36.4,41.3 32.6,42.7 31.7,40.2Z" style="fill-rule:nonzero;"/>
        <path d="M25,23.3C28.2,24.8 31.7,21.7 30.5,18.4C29.8,16.3 27.5,15.2 25.4,15.9C22,17.1 21.8,21.7 25,23.3ZM28.6,19C29.5,21.5 25.7,22.8 24.8,20.3C23.9,17.8 27.7,16.5 28.6,19Z" style="fill-rule:nonzero;"/>
    </g>
</svg>
