<?xml version="1.0" encoding="UTF-8" standalone="no"?>
<!DOCTYPE svg PUBLIC "-//W3C//DTD SVG 1.1//EN" "http://www.w3.org/Graphics/SVG/1.1/DTD/svg11.dtd">
<svg width="100%" height="100%" viewBox="0 0 279 299" version="1.1" xmlns="http://www.w3.org/2000/svg" xmlns:xlink="http://www.w3.org/1999/xlink" xml:space="preserve" xmlns:serif="http://www.serif.com/" style="fill-rule:evenodd;clip-rule:evenodd;stroke-linejoin:round;stroke-miterlimit:1.41421;">
    <g>
        <path d="M46.203,197.251C20.682,197.259 0,217.936 0,243.458C0,261.792 10.699,277.576 26.176,285.044C32.237,287.97 39.02,289.657 46.203,289.662C68.599,289.652 87.256,273.727 91.488,252.585L155.615,252.585L192.5,179.919L205.893,205.468C193.852,213.806 185.954,227.7 185.954,243.458C185.954,268.976 206.638,289.652 232.159,289.662C257.675,289.652 278.354,268.976 278.354,243.458C278.354,217.937 257.674,197.26 232.159,197.251C227.284,197.251 222.593,198.017 218.184,199.417L176.969,120.819L157.522,120.819L158.068,121.644C159.541,123.873 160.06,126.54 159.526,129.158C159.1,131.247 158.038,133.096 156.498,134.509L168.689,134.509L175.572,147.63L116.933,147.63L106.667,171.587L82.237,171.587L76.128,178.091C73.399,180.995 69.545,182.661 65.557,182.661C61.854,182.661 58.328,181.264 55.631,178.729C53.504,176.73 52.123,174.233 51.484,171.586L19.963,171.586L9.697,188.881L66.31,188.881C77.406,195.953 97.183,211.533 101.273,234.332L91.488,234.332C87.256,213.186 68.6,197.259 46.203,197.251ZM72.584,252.585C68.787,263.521 58.432,271.382 46.203,271.4C30.767,271.378 18.279,258.885 18.248,243.458C18.279,228.017 30.767,215.536 46.203,215.503C58.431,215.53 68.793,223.388 72.584,234.333L45.063,234.333L45.063,252.585L72.584,252.585ZM214.477,221.831L228.375,248.347L240.5,241.993L226.885,216.025C228.592,215.696 230.356,215.508 232.158,215.504C247.586,215.537 260.082,228.018 260.097,243.459C260.081,258.887 247.585,271.379 232.158,271.401C216.72,271.379 204.234,258.886 204.203,243.459C204.221,234.732 208.219,226.956 214.477,221.831Z" style="fill-rule:nonzero;"/>
        <path d="M199.645,145.063C199.645,146.434 199.903,147.735 200.27,148.993C201.979,154.782 207.274,159.037 213.62,159.037L213.62,131.087C205.9,131.086 199.645,137.343 199.645,145.063Z" style="fill-rule:nonzero;"/>
        <g transform="matrix(0.8007,-0.599,0.599,0.8007,12.9053,83.7874)">
            <ellipse cx="132.394" cy="22.496" rx="22.494" ry="22.495"/>
        </g>
        <path d="M65.558,180.661C68.889,180.661 72.211,179.339 74.671,176.721L113.418,135.469C116.015,132.703 117.214,128.926 116.683,125.168C116.154,121.41 113.96,118.109 110.697,116.169L77.619,96.487C86.671,89.383 97.253,84.16 106.142,79.397L98.72,68.176C97.247,65.95 96.728,63.281 97.262,60.663C97.797,58.046 99.316,55.794 101.544,54.32C103.187,53.233 105.093,52.659 107.055,52.659C110.426,52.659 113.546,54.337 115.402,57.143L121.756,66.747C124.029,62.611 124.66,58.053 122.711,54.164C118.769,46.299 107.192,39.924 92.801,45.633C73.057,53.604 62.139,61.041 46.96,77.468C40.043,86.197 39.511,94.258 42.192,100.234C42.979,103.336 44.949,106.137 47.917,107.904L47.917,107.902L84.541,129.695L56.451,159.601C51.725,164.634 51.972,172.544 57.003,177.271C59.414,179.538 62.489,180.661 65.558,180.661Z" style="fill-rule:nonzero;"/>
        <path d="M113.732,58.248C111.295,54.562 106.332,53.552 102.647,55.989C98.961,58.426 97.951,63.391 100.388,67.074L143.055,131.575C144.594,133.902 147.139,135.162 149.734,135.162C151.25,135.162 152.782,134.732 154.14,133.834C157.825,131.398 158.836,126.433 156.399,122.749L113.732,58.248Z" style="fill-rule:nonzero;"/>
    </g>
</svg>
