<?xml version="1.0" encoding="UTF-8" standalone="no"?>
<!DOCTYPE svg PUBLIC "-//W3C//DTD SVG 1.1//EN" "http://www.w3.org/Graphics/SVG/1.1/DTD/svg11.dtd">
<svg width="100%" height="100%" viewBox="0 0 65 49" version="1.1" xmlns="http://www.w3.org/2000/svg" xmlns:xlink="http://www.w3.org/1999/xlink" xml:space="preserve" xmlns:serif="http://www.serif.com/" style="fill-rule:evenodd;clip-rule:evenodd;stroke-linejoin:round;stroke-miterlimit:1.41421;">
    <g transform="matrix(1,0,0,1,0,-8)">
        <path d="M25.589,42.715C22.531,42.715 20.044,45.202 20.044,48.26C20.044,51.318 22.532,53.805 25.589,53.805C28.646,53.805 31.134,51.318 31.134,48.26C31.134,45.202 28.646,42.715 25.589,42.715ZM25.589,50.805C24.186,50.805 23.044,49.663 23.044,48.26C23.044,46.857 24.186,45.715 25.589,45.715C26.992,45.715 28.134,46.857 28.134,48.26C28.134,49.663 26.992,50.805 25.589,50.805Z" style="fill-rule:nonzero;"/>
    </g>
    <g transform="matrix(1,0,0,1,0,-8)">
        <path d="M21.375,16.588L9.408,16.588C7.466,16.588 5.885,18.169 5.885,20.111L5.885,26.685C5.885,28.627 7.466,30.207 9.408,30.207L21.375,30.207C23.317,30.207 24.897,28.627 24.897,26.685L24.897,20.111C24.898,18.169 23.318,16.588 21.375,16.588ZM21.898,26.685C21.898,26.973 21.664,27.207 21.376,27.207L9.408,27.207C9.119,27.207 8.885,26.973 8.885,26.685L8.885,20.111C8.885,19.822 9.119,19.588 9.408,19.588L21.375,19.588C21.663,19.588 21.897,19.822 21.897,20.111L21.897,26.685L21.898,26.685Z" style="fill-rule:nonzero;"/>
    </g>
    <g transform="matrix(1,0,0,1,0,-8)">
        <path d="M41.771,16.588L29.803,16.588C27.861,16.588 26.281,18.169 26.281,20.111L26.281,26.685C26.281,28.627 27.861,30.207 29.803,30.207L41.772,30.207C43.713,30.207 45.293,28.627 45.293,26.685L45.293,20.111C45.293,18.169 43.713,16.588 41.771,16.588ZM42.293,26.685C42.293,26.973 42.059,27.207 41.772,27.207L29.803,27.207C29.515,27.207 29.281,26.973 29.281,26.685L29.281,20.111C29.281,19.822 29.515,19.588 29.803,19.588L41.772,19.588C42.059,19.588 42.293,19.822 42.293,20.111L42.293,26.685Z" style="fill-rule:nonzero;"/>
    </g>
    <g transform="matrix(1,0,0,1,0,-8)">
        <path d="M62.25,37.826L49.928,37.826L49.928,14.717C49.928,12.775 48.348,11.195 46.407,11.195L4.772,11.195C2.83,11.195 1.25,12.775 1.25,14.717L1.25,45.226C1.25,47.167 2.83,48.747 4.772,48.747L17.667,48.747C18.496,48.747 19.167,48.075 19.167,47.247C19.167,43.706 22.048,40.825 25.589,40.825C29.13,40.825 32.012,43.706 32.012,47.247C32.012,48.075 32.683,48.747 33.512,48.747L46.407,48.747C48.348,48.747 49.928,47.167 49.928,45.226L49.928,40.826L62.25,40.826C63.078,40.826 63.75,40.154 63.75,39.326C63.75,38.498 63.078,37.826 62.25,37.826ZM46.928,45.227C46.928,45.514 46.694,45.748 46.407,45.748L34.881,45.748C34.158,41.265 30.273,37.826 25.589,37.826C20.905,37.826 17.02,41.264 16.298,45.748L4.772,45.748C4.484,45.748 4.25,45.514 4.25,45.227L4.25,14.717C4.25,14.429 4.484,14.195 4.772,14.195L46.406,14.195C46.693,14.195 46.927,14.429 46.927,14.717L46.927,45.227L46.928,45.227Z" style="fill-rule:nonzero;"/>
    </g>
</svg>
