<?xml version="1.0" encoding="UTF-8" standalone="no"?>
<!DOCTYPE svg PUBLIC "-//W3C//DTD SVG 1.1//EN" "http://www.w3.org/Graphics/SVG/1.1/DTD/svg11.dtd">
<svg width="100%" height="100%" viewBox="0 0 54 56" version="1.1" xmlns="http://www.w3.org/2000/svg" xmlns:xlink="http://www.w3.org/1999/xlink" xml:space="preserve" xmlns:serif="http://www.serif.com/" style="fill-rule:evenodd;clip-rule:evenodd;stroke-linejoin:round;stroke-miterlimit:1.41421;">
    <g>
        <path d="M21.184,39.097L16.664,39.312C16.484,39.312 16.328,39.207 16.254,39.055L12.077,30.093L17.039,33.58L13.679,23.559L18.957,28.671L18.406,16.388L24.929,26.04L25.568,20.016L27.499,25.256L31.003,13.576L31.324,26.858L34.253,23.473L33.955,28.182L41.221,21.103L36.274,35.728L40.994,33.975L38.009,39.085L38.01,39.086C37.924,39.233 37.769,39.314 37.611,39.312L32.63,39.191L33.542,33.709L29.771,37.066L29.2,33.086L28.539,35.228L27.185,33.097L26.851,35.722L23.666,31.461L23.558,37.529L20.64,35.491L21.184,39.097L21.184,39.097Z" style="fill-rule:nonzero;"/>
        <path d="M9.344,0L43.989,0C49.128,0 53.333,4.205 53.333,9.344L53.333,43.989C53.333,49.128 49.128,53.333 43.989,53.333L9.344,53.333C4.205,53.333 0,49.128 0,43.989L0,9.344C0,4.205 4.205,0 9.344,0ZM9.344,3.491C6.132,3.491 3.491,6.132 3.491,9.344L3.491,43.989C3.491,47.201 6.132,49.842 9.344,49.842L43.989,49.842C47.201,49.842 49.842,47.201 49.842,43.989L49.842,9.344C49.842,6.132 47.201,3.491 43.989,3.491L9.344,3.491Z"/>
    </g>
</svg>
